<?xml version="1.0" encoding="UTF-8" standalone="no"?>
<svg
   xmlns:dc="http://purl.org/dc/elements/1.1/"
   xmlns:cc="http://creativecommons.org/ns#"
   xmlns:rdf="http://www.w3.org/1999/02/22-rdf-syntax-ns#"
   xmlns:svg="http://www.w3.org/2000/svg"
   xmlns="http://www.w3.org/2000/svg"
   xmlns:sodipodi="http://sodipodi.sourceforge.net/DTD/sodipodi-0.dtd"
   xmlns:inkscape="http://www.inkscape.org/namespaces/inkscape"
   version="1.1"
   width="10.0736cm"
   height="1.64338cm"
   viewBox="0 0 39660 6470 "
   id="svg60460"
   inkscape:version="0.48.4 r9939"
   sodipodi:docname="square1-planecap-inkscp.svg">
  <metadata
     id="metadata62640">
    <rdf:RDF>
      <cc:Work
         rdf:about="">
        <dc:format>image/svg+xml</dc:format>
        <dc:type
           rdf:resource="http://purl.org/dc/dcmitype/StillImage" />
        <dc:title>SVG Picture created as square1-planecap--brd.svg date 2015/11/05 17:34:40 </dc:title>
      </cc:Work>
    </rdf:RDF>
  </metadata>
  <defs
     id="defs62638" />
  <sodipodi:namedview
     pagecolor="#ffffff"
     bordercolor="#666666"
     borderopacity="1"
     objecttolerance="10"
     gridtolerance="10"
     guidetolerance="10"
     inkscape:pageopacity="0"
     inkscape:pageshadow="2"
     inkscape:window-width="1364"
     inkscape:window-height="652"
     id="namedview62636"
     showgrid="false"
     inkscape:zoom="18.737118"
     inkscape:cx="70.85456"
     inkscape:cy="13.48038"
     inkscape:window-x="0"
     inkscape:window-y="24"
     inkscape:window-maximized="0"
     inkscape:current-layer="layer1"
     showguides="true"
     inkscape:guide-bbox="true">
    <sodipodi:guide
       orientation="0,1"
       position="351.34348,29.039614"
       id="guide5608" />
    <sodipodi:guide
       orientation="0,1"
       position="352.43882,50.131111"
       id="guide5612" />
    <sodipodi:guide
       orientation="1,0"
       position="58.796256,31.101068"
       id="guide5614" />
    <sodipodi:guide
       orientation="0,1"
       position="45.417871,48.353221"
       id="guide3906" />
    <sodipodi:guide
       orientation="1,0"
       position="328.62503,40.757353"
       id="guide3908" />
    <sodipodi:guide
       orientation="0,1"
       position="311.26541,53.663848"
       id="guide4684" />
    <sodipodi:guide
       orientation="1,0"
       position="335.07828,32.454929"
       id="guide4688" />
    <sodipodi:guide
       orientation="0,1"
       position="332.66302,29.964202"
       id="guide4690" />
    <sodipodi:guide
       orientation="1,0"
       position="326.77585,29.964202"
       id="guide4692" />
    <sodipodi:guide
       orientation="0,1"
       position="329.15336,28.190503"
       id="guide4694" />
    <sodipodi:guide
       orientation="0,1"
       position="332.39886,32.039808"
       id="guide4703" />
    <sodipodi:guide
       orientation="1,0"
       position="332.97544,35.170831"
       id="guide4736" />
    <sodipodi:guide
       orientation="0,1"
       position="48.9843,9.5855256"
       id="guide7369" />
    <sodipodi:guide
       orientation="0,1"
       position="85.40175,17.43509"
       id="guide7371" />
    <sodipodi:guide
       orientation="0,1"
       position="83.099714,40.568662"
       id="guide7373" />
    <sodipodi:guide
       orientation="1,0"
       position="104.00673,17.43509"
       id="guide7375" />
    <sodipodi:guide
       orientation="1,0"
       position="125.59303,15.699129"
       id="guide7377" />
    <sodipodi:guide
       orientation="1,0"
       position="147.14159,13.359355"
       id="guide7379" />
    <sodipodi:guide
       orientation="1,0"
       position="168.76563,10.453506"
       id="guide7381" />
    <sodipodi:guide
       orientation="1,0"
       position="190.38967,17.887949"
       id="guide7383" />
    <sodipodi:guide
       orientation="1,0"
       position="211.93824,16.34068"
       id="guide7385" />
    <sodipodi:guide
       orientation="1,0"
       position="233.56228,12.264944"
       id="guide7387" />
    <sodipodi:guide
       orientation="1,0"
       position="255.14858,14.378288"
       id="guide7389" />
    <sodipodi:guide
       orientation="1,0"
       position="276.81036,12.000776"
       id="guide7391" />
    <sodipodi:guide
       orientation="1,0"
       position="320.0207,13.434831"
       id="guide7393" />
    <sodipodi:guide
       orientation="1,0"
       position="64.150742,44.724061"
       id="guide3065" />
    <sodipodi:guide
       orientation="1,0"
       position="82.456652,49.260511"
       id="guide3067" />
  </sodipodi:namedview>
  <title
     id="title60462">SVG Picture created as square1-planecap--brd.svg date 2015/11/05 17:34:40 </title>
  <desc
     id="desc60464">Picture generated by PCBNEW </desc>
  <g
     style="fill:#000000;fill-opacity:1;stroke:#000000;stroke-opacity:1;stroke-linecap:round;stroke-linejoin:miter"
     transform="translate(0 0) scale(1 1)"
     id="g60466" />
  <g
     style="fill:#000000;fill-opacity:0;stroke:#000000;stroke-width:19.68499999999999872;stroke-opacity:1;stroke-linecap:round;stroke-linejoin:miter"
     id="g60544" />
  <g
     inkscape:groupmode="layer"
     id="layer1"
     inkscape:label="Layerover"
     style="display:inline">
    <rect
       style="fill:#000000;fill-opacity:1;stroke:none"
       id="rect5451"
       width="1859.0625"
       height="866.15417"
       x="28899.971"
       y="1097.0408" />
    <path
       style="fill:#000000;fill-opacity:1;stroke:none"
       d="m 28906.464,1097.2135 0,864.5868 802.087,0 0,2573.1918 -802.087,0 0,868.0591 1852.733,0 0,-868.0591 -804.117,0 0,-2573.1918 801.75,0.5657 0,-864.5868 z"
       id="rect5456"
       inkscape:connector-curvature="0"
       sodipodi:nodetypes="ccccccccccccc" />
    <path
       id="path5465"
       d="m 31301.624,1097.2135 0,864.5868 802.087,0 0,2573.1918 -802.087,0 0,868.0591 1861.119,0 0,-868.0591 -812.503,0 0,-2573.1918 812.503,0 0,-864.5868 z"
       style="fill:#000000;fill-opacity:1;stroke:none"
       inkscape:connector-curvature="0"
       sodipodi:nodetypes="ccccccccccccc" />
    <path
       inkscape:connector-curvature="0"
       style="fill:#000000;fill-opacity:1;stroke:none"
       d="m 33703.826,1097.2135 0,864.5868 802.087,0 0,2573.1918 -802.087,0 0,868.0591 1852.733,0 0,-868.0591 -804.117,0 0,-2573.1918 805.556,0.5657 0,-864.5868 z"
       id="path5467"
       sodipodi:nodetypes="ccccccccccccc" />
    <path
       id="path5469"
       d="m 26504.262,1097.2135 0,864.5868 802.087,0 0,2573.1918 -802.087,0 0,868.0591 1852.733,0 0,-868.0591 -804.117,0 0,-2573.1918 797.078,0.5657 0,-864.5868 z"
       style="fill:#000000;fill-opacity:1;stroke:none"
       inkscape:connector-curvature="0"
       sodipodi:nodetypes="ccccccccccccc" />
    <path
       inkscape:connector-curvature="0"
       style="fill:#000000;fill-opacity:1;stroke:none"
       d="m 24102.06,1097.2135 0,864.5868 802.087,0 0,2573.1918 -802.087,0 0,868.0591 1852.733,0 0,-868.0591 -804.117,0 0,-2573.1918 800.793,0.5657 0,-864.5868 z"
       id="path5471"
       sodipodi:nodetypes="ccccccccccccc" />
    <path
       id="path5473"
       d="m 21699.858,1097.2135 0,864.5868 802.087,0 0,2573.1918 -802.087,0 0,868.0591 1852.733,0 0,-868.0591 -804.117,0 0,-2573.1918 800.314,0.5657 0,-864.5868 z"
       style="fill:#000000;fill-opacity:1;stroke:none"
       inkscape:connector-curvature="0"
       sodipodi:nodetypes="ccccccccccccc" />
    <path
       inkscape:connector-curvature="0"
       style="fill:#000000;fill-opacity:1;stroke:none"
       d="m 19304.698,1097.2135 0,864.5868 802.087,0 0,2573.1918 -802.087,0 0,868.0591 1852.733,0 0,-868.0591 -804.117,0 0,-2573.1918 801.179,0.5657 0,-864.5868 z"
       id="path5475"
       sodipodi:nodetypes="ccccccccccccc" />
    <path
       id="path5477"
       d="m 16909.538,1097.2135 0,864.5868 802.087,0 0,2573.1918 -802.087,0 0,868.0591 1840.154,0 0,-868.0591 -791.538,0 0,-2573.1918 793.658,0.5657 0,-864.5868 z"
       style="fill:#000000;fill-opacity:1;stroke:none"
       inkscape:connector-curvature="0"
       sodipodi:nodetypes="ccccccccccccc" />
    <path
       inkscape:connector-curvature="0"
       style="fill:#000000;fill-opacity:1;stroke:none"
       d="m 14500.294,1097.2135 0,864.5868 802.087,0 0,2573.1918 -802.087,0 0,868.0591 1852.733,0 0,-868.0591 -804.117,0 0,-2573.1918 800.221,0.5657 0,-864.5868 z"
       id="path5479"
       sodipodi:nodetypes="ccccccccccccc" />
    <path
       id="path5481"
       d="m 12105.134,1097.2135 0,864.5868 802.087,0 0,2573.1918 -802.087,0 0,868.0591 1852.733,0 0,-868.0591 -804.117,0 0,-2573.1918 801.087,0.5657 0,-864.5868 z"
       style="fill:#000000;fill-opacity:1;stroke:none"
       inkscape:connector-curvature="0"
       sodipodi:nodetypes="ccccccccccccc" />
    <path
       inkscape:connector-curvature="0"
       style="fill:#000000;fill-opacity:1;stroke:none"
       d="m 9709.9731,1097.2135 0,864.5868 802.0879,0 0,2573.1918 -802.0879,0 0,868.0591 1852.7339,0 0,-868.0591 -804.117,0 0,-2573.1918 797.76,0.5657 0,-864.5868 z"
       id="path5483"
       sodipodi:nodetypes="ccccccccccccc" />
    <path
       style="fill:#000000;fill-opacity:1;stroke:none"
       d="m 64.15074,9.8767821 0,7.7845589 8.78676,-0.0051 0,23.120895 -8.78676,0.01777 0,7.849564 18.30591,0 0,-7.849564 -7.3004,-0.01776 0,-23.120895 7.3004,0.0051 0,-7.7845589 z"
       transform="matrix(111.11156,0,0,111.11156,0,-0.01316393)"
       id="path5485"
       inkscape:connector-curvature="0"
       sodipodi:nodetypes="ccccccccccccc" />
    <g
       id="g5499"
       style="fill:#000000;fill-opacity:1;stroke:none">
      <path
         id="rect5492"
         transform="matrix(111.11156,0,0,111.11156,0,-0.01316393)"
         d="m 299.75,4.625 0,14.3125 -7.25,0 0,7.96875 16.71875,0 0,-7.96875 -7.25,0 0,-14.3125 -2.21875,0 z"
         style="fill:#000000;fill-opacity:1;stroke:none"
         inkscape:connector-curvature="0" />
      <path
         inkscape:connector-curvature="0"
         style="fill:#000000;fill-opacity:1;stroke:none"
         d="m 33305.69,5963.1323 0,-1590.2842 -805.559,0 0,-885.4202 1857.647,0 0,885.4202 -805.559,0 0,1590.2842 -246.529,0 z"
         id="path5497" />
    </g>
    <g
       id="g5503"
       transform="translate(-2397.5771,0)"
       style="fill:#000000;fill-opacity:1;stroke:none">
      <path
         style="fill:#000000;fill-opacity:1;stroke:none"
         d="m 299.75,4.625 0,14.3125 -7.25,0 0,7.96875 16.71875,0 0,-7.96875 -7.25,0 0,-14.3125 -2.21875,0 z"
         transform="matrix(111.11156,0,0,111.11156,0,-0.01316393)"
         id="path5505"
         inkscape:connector-curvature="0" />
      <path
         id="path5507"
         d="m 33305.69,5963.1323 0,-1590.2842 -805.559,0 0,-885.4202 1857.647,0 0,885.4202 -805.559,0 0,1590.2842 -246.529,0 z"
         style="fill:#000000;fill-opacity:1;stroke:none"
         inkscape:connector-curvature="0" />
    </g>
    <g
       transform="translate(-4806.8218,0)"
       id="g5509"
       style="fill:#000000;fill-opacity:1;stroke:none">
      <path
         inkscape:connector-curvature="0"
         id="path5511"
         transform="matrix(111.11156,0,0,111.11156,0,-0.01316393)"
         d="m 299.75,4.625 0,14.3125 -7.25,0 0,7.96875 16.71875,0 0,-7.96875 -7.25,0 0,-14.3125 -2.21875,0 z"
         style="fill:#000000;fill-opacity:1;stroke:none" />
      <path
         inkscape:connector-curvature="0"
         style="fill:#000000;fill-opacity:1;stroke:none"
         d="m 33305.69,5963.1323 0,-1590.2842 -805.559,0 0,-885.4202 1857.647,0 0,885.4202 -805.559,0 0,1590.2842 -246.529,0 z"
         id="path5513" />
    </g>
    <g
       id="g5515"
       transform="translate(-7201.9827,0)"
       style="fill:#000000;fill-opacity:1;stroke:none">
      <path
         style="fill:#000000;fill-opacity:1;stroke:none"
         d="m 299.75,4.625 0,14.3125 -7.25,0 0,7.96875 16.71875,0 0,-7.96875 -7.25,0 0,-14.3125 -2.21875,0 z"
         transform="matrix(111.11156,0,0,111.11156,0,-0.01316393)"
         id="path5517"
         inkscape:connector-curvature="0" />
      <path
         id="path5519"
         d="m 33305.69,5963.1323 0,-1590.2842 -805.559,0 0,-885.4202 1857.647,0 0,885.4202 -805.559,0 0,1590.2842 -246.529,0 z"
         style="fill:#000000;fill-opacity:1;stroke:none"
         inkscape:connector-curvature="0" />
    </g>
    <g
       transform="translate(-9597.1436,0)"
       id="g5521"
       style="fill:#000000;fill-opacity:1;stroke:none">
      <path
         inkscape:connector-curvature="0"
         id="path5523"
         transform="matrix(111.11156,0,0,111.11156,0,-0.01316393)"
         d="m 299.75,4.625 0,14.3125 -7.25,0 0,7.96875 16.71875,0 0,-7.96875 -7.25,0 0,-14.3125 -2.21875,0 z"
         style="fill:#000000;fill-opacity:1;stroke:none" />
      <path
         inkscape:connector-curvature="0"
         style="fill:#000000;fill-opacity:1;stroke:none"
         d="m 33305.69,5963.1323 0,-1590.2842 -805.559,0 0,-885.4202 1857.647,0 0,885.4202 -805.559,0 0,1590.2842 -246.529,0 z"
         id="path5525" />
    </g>
    <g
       id="g5527"
       transform="translate(-11999.346,0)"
       style="fill:#000000;fill-opacity:1;stroke:none">
      <path
         style="fill:#000000;fill-opacity:1;stroke:none"
         d="m 299.75,4.625 0,14.3125 -7.25,0 0,7.96875 16.71875,0 0,-7.96875 -7.25,0 0,-14.3125 -2.21875,0 z"
         transform="matrix(111.11156,0,0,111.11156,0,-0.01316393)"
         id="path5529"
         inkscape:connector-curvature="0" />
      <path
         id="path5531"
         d="m 33305.69,5963.1323 0,-1590.2842 -805.559,0 0,-885.4202 1857.647,0 0,885.4202 -805.559,0 0,1590.2842 -246.529,0 z"
         style="fill:#000000;fill-opacity:1;stroke:none"
         inkscape:connector-curvature="0" />
    </g>
    <g
       transform="translate(-14401.548,0)"
       id="g5533"
       style="fill:#000000;fill-opacity:1;stroke:none">
      <path
         inkscape:connector-curvature="0"
         id="path5535"
         transform="matrix(111.11156,0,0,111.11156,0,-0.01316393)"
         d="m 299.75,4.625 0,14.3125 -7.25,0 0,7.96875 16.71875,0 0,-7.96875 -7.25,0 0,-14.3125 -2.21875,0 z"
         style="fill:#000000;fill-opacity:1;stroke:none" />
      <path
         inkscape:connector-curvature="0"
         style="fill:#000000;fill-opacity:1;stroke:none"
         d="m 33305.69,5963.1323 0,-1590.2842 -805.559,0 0,-885.4202 1857.647,0 0,885.4202 -805.559,0 0,1590.2842 -246.529,0 z"
         id="path5537" />
    </g>
    <g
       id="g5539"
       transform="translate(-16803.75,0)"
       style="fill:#000000;fill-opacity:1;stroke:none">
      <path
         style="fill:#000000;fill-opacity:1;stroke:none"
         d="m 299.75,4.625 0,14.3125 -7.25,0 0,7.96875 16.71875,0 0,-7.96875 -7.25,0 0,-14.3125 -2.21875,0 z"
         transform="matrix(111.11156,0,0,111.11156,0,-0.01316393)"
         id="path5541"
         inkscape:connector-curvature="0" />
      <path
         id="path5543"
         d="m 33305.69,5963.1323 0,-1590.2842 -805.559,0 0,-885.4202 1857.647,0 0,885.4202 -805.559,0 0,1590.2842 -246.529,0 z"
         style="fill:#000000;fill-opacity:1;stroke:none"
         inkscape:connector-curvature="0" />
    </g>
    <g
       transform="translate(-19198.91,0)"
       id="g5545"
       style="fill:#000000;fill-opacity:1;stroke:none">
      <path
         inkscape:connector-curvature="0"
         id="path5547"
         transform="matrix(111.11156,0,0,111.11156,0,-0.01316393)"
         d="m 299.75,4.625 0,14.3125 -7.25,0 0,7.96875 16.71875,0 0,-7.96875 -7.25,0 0,-14.3125 -2.21875,0 z"
         style="fill:#000000;fill-opacity:1;stroke:none" />
      <path
         inkscape:connector-curvature="0"
         style="fill:#000000;fill-opacity:1;stroke:none"
         d="m 33305.69,5963.1323 0,-1590.2842 -805.559,0 0,-885.4202 1857.647,0 0,885.4202 -805.559,0 0,1590.2842 -246.529,0 z"
         id="path5549" />
    </g>
    <g
       id="g5551"
       transform="translate(-21601.112,0)"
       style="fill:#000000;fill-opacity:1;stroke:none">
      <path
         style="fill:#000000;fill-opacity:1;stroke:none"
         d="m 299.75,4.625 0,14.3125 -7.25,0 0,7.96875 16.71875,0 0,-7.96875 -7.25,0 0,-14.3125 -2.21875,0 z"
         transform="matrix(111.11156,0,0,111.11156,0,-0.01316393)"
         id="path5553"
         inkscape:connector-curvature="0" />
      <path
         id="path5555"
         d="m 33305.69,5963.1323 0,-1590.2842 -805.559,0 0,-885.4202 1857.647,0 0,885.4202 -805.559,0 0,1590.2842 -246.529,0 z"
         style="fill:#000000;fill-opacity:1;stroke:none"
         inkscape:connector-curvature="0" />
    </g>
    <g
       transform="translate(-23996.272,0)"
       id="g5557"
       style="fill:#000000;fill-opacity:1;stroke:none">
      <path
         inkscape:connector-curvature="0"
         id="path5559"
         transform="matrix(111.11156,0,0,111.11156,0,-0.01316393)"
         d="m 299.75,4.625 0,14.3125 -7.25,0 0,7.96875 16.71875,0 0,-7.96875 -7.25,0 0,-14.3125 -2.21875,0 z"
         style="fill:#000000;fill-opacity:1;stroke:none" />
      <path
         inkscape:connector-curvature="0"
         style="fill:#000000;fill-opacity:1;stroke:none"
         d="m 33305.69,5963.1323 0,-1590.2842 -805.559,0 0,-885.4202 1857.647,0 0,885.4202 -805.559,0 0,1590.2842 -246.529,0 z"
         id="path5561" />
    </g>
    <path
       sodipodi:nodetypes="cccccccc"
       inkscape:connector-curvature="0"
       id="path5565"
       d="m 6715.5791,513.8778 0,1460.8204 -1024.6508,1014.884 2255.996,0 0,-885.4202 -984.8164,0 0,-1590.2842 z"
       style="fill:#000000;fill-opacity:1;stroke:none" />
    <path
       style="fill:#000000;fill-opacity:1;stroke:none"
       d="m 6715.5791,5991.1589 0,-1460.8204 -1024.6508,-1014.884 2255.996,0 0,885.4202 -984.8164,0 0,1590.2842 z"
       id="path5571"
       inkscape:connector-curvature="0"
       sodipodi:nodetypes="cccccccc" />
    <path
       style="fill:#000000;fill-opacity:1;stroke:none"
       d="m 58.78125,9.8125 -14.6875,15.3125 0,1.46875 0,5.09375 0,1.46875 L 59,48.5625 58.9375,41.25 47.75,30 l 279,0.03125 1.875,2.15625 1.84375,0 c 0.98382,1.475993 2.67227,2.46875 4.5625,2.46875 1.89053,0 3.57875,-0.99237 4.5625,-2.46875 l 7.375,0 0,-6 -7.375,0 c -0.98181,-1.478667 -2.66319,-2.4375 -4.5625,-2.4375 -1.89856,0 -3.58052,0.959822 -4.5625,2.4375 l -1.8125,0 L 326.75,28.28125 47.78125,28.25 l 11,-11.21875 0,-7.21875 z m 276.28125,18.125 c 0.68492,0 1.25,0.56508 1.25,1.25 0,0.68492 -0.56508,1.25 -1.25,1.25 -0.68492,0 -1.25,-0.56508 -1.25,-1.25 0,-0.68492 0.56508,-1.25 1.25,-1.25 z"
       transform="matrix(111.11156,0,0,111.11156,0,-0.01316393)"
       id="path5574"
       inkscape:connector-curvature="0" />
    <path
       sodipodi:nodetypes="ccccccc"
       inkscape:connector-curvature="0"
       id="path5598"
       d="m 35707.18,513.8778 0,1590.2842 -805.559,0 -9.959,870.328 1062.046,0 0,-2460.61242 z"
       style="fill:#000000;fill-opacity:1;stroke:none" />
    <path
       style="fill:#000000;fill-opacity:1;stroke:none"
       d="m 35707.18,5949.1069 0,-1590.2842 -805.559,0 -9.959,-870.328 1062.046,0 0,2460.6124 z"
       id="path5606"
       inkscape:connector-curvature="0"
       sodipodi:nodetypes="ccccccc" />
    <path
       style="font-size:medium;font-style:normal;font-variant:normal;font-weight:normal;font-stretch:normal;text-indent:0;text-align:start;text-decoration:none;line-height:normal;letter-spacing:normal;word-spacing:normal;text-transform:none;direction:ltr;block-progression:tb;writing-mode:lr-tb;text-anchor:start;baseline-shift:baseline;color:#000000;fill:#000000;fill-opacity:1;stroke:none;stroke-width:0;marker:none;visibility:visible;display:inline;overflow:visible;enable-background:accumulate;font-family:Sans;-inkscape-font-specification:Sans"
       d="m 323.53125,4.5625 -0.21875,11.125 5.3125,-1.28125 1.9375,0 c 0.99424,1.403571 2.63436,2.3125 4.46875,2.3125 1.82812,0 3.44229,-0.916994 4.4375,-2.3125 l 7.46875,0 0,-6.25 -7.4375,0 c -0.99274,-1.4064038 -2.62511,-2.34375 -4.46875,-2.34375 -1.84261,0 -3.47584,0.9386721 -4.46875,2.34375 l -1.90625,0 -5.125,-3.59375 z m 11.53125,5.46875 c 0.68492,0 1.25,0.56508 1.25,1.25 0,0.68492 -0.56508,1.21875 -1.25,1.21875 -0.68492,0 -1.25,-0.53383 -1.25,-1.21875 0,-0.68492 0.56508,-1.25 1.25,-1.25 z"
       transform="matrix(111.11156,0,0,111.11156,0,-0.01316393)"
       id="path3910"
       inkscape:connector-curvature="0" />
    <path
       id="path4761"
       d="m 35948.062,6014.6421 -24.306,-1236.1161 590.28,142.3617 215.279,0 c 110.472,-155.9529 292.708,-256.9454 496.53,-256.9454 203.125,0 382.478,101.8886 493.057,256.9454 l 829.865,0 0,694.4473 -826.392,0 c -110.305,156.2677 -291.68,260.4177 -496.53,260.4177 -204.735,0 -386.206,-104.2973 -496.53,-260.4177 l -211.806,0 -569.447,399.3071 z m 1281.255,-607.6413 c 76.103,0 138.89,-62.7869 138.89,-138.8895 0,-76.1025 -62.787,-135.4172 -138.89,-135.4172 -76.102,0 -138.889,59.3147 -138.889,135.4172 0,76.1026 62.787,138.8895 138.889,138.8895 z"
       style="font-size:medium;font-style:normal;font-variant:normal;font-weight:normal;font-stretch:normal;text-indent:0;text-align:start;text-decoration:none;line-height:normal;letter-spacing:normal;word-spacing:normal;text-transform:none;direction:ltr;block-progression:tb;writing-mode:lr-tb;text-anchor:start;baseline-shift:baseline;color:#000000;fill:#000000;fill-opacity:1;stroke:none;stroke-width:0;marker:none;visibility:visible;display:inline;overflow:visible;enable-background:accumulate;font-family:Sans;-inkscape-font-specification:Sans"
       inkscape:connector-curvature="0" />
    <path
       inkscape:connector-curvature="0"
       style="font-size:medium;font-style:normal;font-variant:normal;font-weight:normal;font-stretch:normal;text-indent:0;text-align:start;text-decoration:none;line-height:normal;letter-spacing:normal;word-spacing:normal;text-transform:none;direction:ltr;block-progression:tb;writing-mode:lr-tb;text-anchor:start;baseline-shift:baseline;color:#000000;fill:#000000;fill-opacity:1;stroke:none;stroke-width:416.66833496000003834;marker:none;visibility:visible;display:inline;overflow:visible;enable-background:accumulate;font-family:Sans;-inkscape-font-specification:Sans"
       d="m 35951.533,502.01778 -29597.3407,13.88894 -90.2781,0 -59.028,62.50025 -2031.2582,2069.45283 -59.028,59.028 0,86.8059 0,246.5288 0,420.1405 0,246.5288 0,86.8059 59.028,59.028 2031.2582,2069.4528 59.028,62.5002 90.2781,0 29597.3407,13.889 0,-416.6684 -29510.5348,-13.8889 -1909.7299,-1944.4523 0,-163.1951 0,-420.1405 0,-163.1951 1909.7299,-1944.45234 29510.5348,-13.88895 0,-416.66833 z"
       id="path5610" />
  </g>
</svg>
