G04 #@! TF.FileFunction,Legend,Top*
%FSLAX46Y46*%
G04 Gerber Fmt 4.6, Leading zero omitted, Abs format (unit mm)*
G04 Created by KiCad (PCBNEW 4.0.2+e4-6225~38~ubuntu14.04.1-stable) date Tue 17 May 2016 20:21:22 AEST*
%MOMM*%
G01*
G04 APERTURE LIST*
%ADD10C,0.150000*%
%ADD11C,0.200000*%
%ADD12C,2.800000*%
G04 APERTURE END LIST*
D10*
D11*
X254000Y-254000D02*
X99314000Y-254000D01*
X99314000Y-99314000D02*
X254000Y-99314000D01*
X99314000Y-254000D02*
X99314000Y-99314000D01*
X254000Y-20066000D02*
X99314000Y-20066000D01*
X254000Y-39878000D02*
X99314000Y-39878000D01*
X254000Y-59690000D02*
X99314000Y-59690000D01*
X254000Y-79502000D02*
X99314000Y-79502000D01*
X23114000Y-2032000D02*
X42164000Y-2032000D01*
X36068000Y-2032000D02*
X23114000Y-2032000D01*
X254000Y-99314000D02*
X254000Y-254000D01*
D10*
X94234000Y-97536000D02*
X9906000Y-97536000D01*
X94234000Y-81280000D02*
X94234000Y-97536000D01*
X9906000Y-97536000D02*
X1778000Y-89408000D01*
X94234000Y-81280000D02*
X10414000Y-81280000D01*
X10414000Y-81280000D02*
X1778000Y-89408000D01*
X94234000Y-57912000D02*
X9906000Y-57912000D01*
X94234000Y-41656000D02*
X94234000Y-57912000D01*
X9906000Y-57912000D02*
X1778000Y-49784000D01*
X94234000Y-41656000D02*
X10414000Y-41656000D01*
X10414000Y-41656000D02*
X1778000Y-49784000D01*
X94234000Y-77724000D02*
X9906000Y-77724000D01*
X94234000Y-61468000D02*
X94234000Y-77724000D01*
X9906000Y-77724000D02*
X1778000Y-69596000D01*
X94234000Y-61468000D02*
X10414000Y-61468000D01*
X10414000Y-61468000D02*
X1778000Y-69596000D01*
X94234000Y-38100000D02*
X9906000Y-38100000D01*
X94234000Y-21844000D02*
X94234000Y-38100000D01*
X9906000Y-38100000D02*
X1778000Y-29972000D01*
X94234000Y-21844000D02*
X10414000Y-21844000D01*
X10414000Y-21844000D02*
X1778000Y-29972000D01*
X94234000Y-18288000D02*
X9906000Y-18288000D01*
X94234000Y-2032000D02*
X94234000Y-18288000D01*
X9906000Y-18288000D02*
X1778000Y-10160000D01*
X94234000Y-2032000D02*
X10414000Y-2032000D01*
X10414000Y-2032000D02*
X1778000Y-10160000D01*
%LPC*%
D12*
X89916000Y-84277200D03*
X89916000Y-89408000D03*
X89916000Y-94564200D03*
X89916000Y-44653200D03*
X89916000Y-49784000D03*
X89916000Y-54940200D03*
X89916000Y-64465200D03*
X89916000Y-69596000D03*
X89916000Y-74752200D03*
X89916000Y-24841200D03*
X89916000Y-29972000D03*
X89916000Y-35128200D03*
X89916000Y-5029200D03*
X89916000Y-10160000D03*
X89916000Y-15316200D03*
M02*
