G04 #@! TF.FileFunction,Copper,L2,Bot,Signal*
%FSLAX46Y46*%
G04 Gerber Fmt 4.6, Leading zero omitted, Abs format (unit mm)*
G04 Created by KiCad (PCBNEW 4.0.2+e4-6225~38~ubuntu14.04.1-stable) date Tue 17 May 2016 20:32:36 AEST*
%MOMM*%
G01*
G04 APERTURE LIST*
%ADD10C,0.100000*%
%ADD11R,2.286000X2.286000*%
%ADD12C,2.286000*%
%ADD13R,2.235200X2.235200*%
%ADD14C,1.998980*%
%ADD15O,2.032000X2.032000*%
%ADD16O,1.727200X2.032000*%
%ADD17R,2.032000X2.032000*%
%ADD18O,2.032000X1.778000*%
%ADD19C,0.762000*%
%ADD20C,0.508000*%
%ADD21C,1.016000*%
G04 APERTURE END LIST*
D10*
D11*
X63119000Y63754000D03*
D12*
X63119000Y68834000D03*
D11*
X63119000Y8636000D03*
D12*
X63119000Y13716000D03*
D11*
X8001000Y8636000D03*
D12*
X8001000Y13716000D03*
D11*
X8382000Y63754000D03*
D12*
X8382000Y68834000D03*
D11*
X92964000Y6858000D03*
D12*
X87884000Y6858000D03*
D11*
X37846000Y6985000D03*
D12*
X32766000Y6985000D03*
D11*
X92964000Y62103000D03*
D12*
X87884000Y62103000D03*
D11*
X37846000Y61976000D03*
D12*
X32766000Y61976000D03*
D13*
X52197000Y2921000D03*
D14*
X52197000Y28321000D03*
X52197000Y25781000D03*
X52197000Y23241000D03*
X52197000Y20701000D03*
X52197000Y7112000D03*
X52197000Y17272000D03*
X52197000Y61595000D03*
X52197000Y71755000D03*
X52197000Y82550000D03*
X52197000Y80010000D03*
X52197000Y77470000D03*
X52197000Y74930000D03*
D13*
X52197000Y57531000D03*
X57658000Y47752000D03*
D14*
X83439000Y47752000D03*
X80899000Y47752000D03*
X78359000Y47752000D03*
X75819000Y47752000D03*
X71882000Y47752000D03*
X61722000Y47752000D03*
D15*
X77470000Y13462000D03*
X80010000Y13462000D03*
X74930000Y13462000D03*
D16*
X62230000Y20383500D03*
X64770000Y20383500D03*
X67310000Y20383500D03*
X69850000Y20383500D03*
X72390000Y20383500D03*
X74930000Y20383500D03*
X77470000Y20383500D03*
X80010000Y20383500D03*
X82550000Y20383500D03*
X85090000Y20383500D03*
X87630000Y20383500D03*
X90170000Y20383500D03*
X62230000Y35623500D03*
X64770000Y35623500D03*
X67310000Y35623500D03*
X69850000Y35623500D03*
X72390000Y35623500D03*
X74930000Y35623500D03*
X77470000Y35623500D03*
X80010000Y35623500D03*
X82550000Y35623500D03*
X85090000Y35623500D03*
X87630000Y35623500D03*
X90170000Y35623500D03*
D17*
X95504000Y26289000D03*
D15*
X95504000Y28829000D03*
D17*
X90424000Y13589000D03*
D15*
X87884000Y13589000D03*
D17*
X70231000Y9906000D03*
D15*
X70231000Y12446000D03*
D17*
X95504000Y33274000D03*
D15*
X95504000Y35774000D03*
X80010000Y17272000D03*
X90170000Y17272000D03*
X95504000Y15240000D03*
X95504000Y17780000D03*
X95504000Y20320000D03*
X77470000Y5374000D03*
D17*
X77470000Y7874000D03*
D15*
X83566000Y9779000D03*
D17*
X83566000Y13589000D03*
D15*
X74930000Y23241000D03*
X77470000Y23241000D03*
X80010000Y23241000D03*
X82550000Y23241000D03*
X82550000Y30861000D03*
X80010000Y30861000D03*
D18*
X77470000Y30861000D03*
X74930000Y30861000D03*
D15*
X72430640Y16637000D03*
X77431900Y16637000D03*
D17*
X72390000Y40386000D03*
D15*
X74930000Y40386000D03*
X77470000Y40386000D03*
X80010000Y40386000D03*
D17*
X64770000Y40386000D03*
D15*
X67310000Y40386000D03*
X77470000Y68580000D03*
X80010000Y68580000D03*
X74930000Y68580000D03*
D16*
X62230000Y75501500D03*
X64770000Y75501500D03*
X67310000Y75501500D03*
X69850000Y75501500D03*
X72390000Y75501500D03*
X74930000Y75501500D03*
X77470000Y75501500D03*
X80010000Y75501500D03*
X82550000Y75501500D03*
X85090000Y75501500D03*
X87630000Y75501500D03*
X90170000Y75501500D03*
X62230000Y90741500D03*
X64770000Y90741500D03*
X67310000Y90741500D03*
X69850000Y90741500D03*
X72390000Y90741500D03*
X74930000Y90741500D03*
X77470000Y90741500D03*
X80010000Y90741500D03*
X82550000Y90741500D03*
X85090000Y90741500D03*
X87630000Y90741500D03*
X90170000Y90741500D03*
D17*
X95504000Y81407000D03*
D15*
X95504000Y83947000D03*
D17*
X90424000Y68707000D03*
D15*
X87884000Y68707000D03*
D17*
X70231000Y65024000D03*
D15*
X70231000Y67564000D03*
D17*
X95504000Y88392000D03*
D15*
X95504000Y90892000D03*
X80010000Y72390000D03*
X90170000Y72390000D03*
X95504000Y70358000D03*
X95504000Y72898000D03*
X95504000Y75438000D03*
X77470000Y60492000D03*
D17*
X77470000Y62992000D03*
D15*
X83566000Y64897000D03*
D17*
X83566000Y68707000D03*
D15*
X74930000Y78359000D03*
X77470000Y78359000D03*
X80010000Y78359000D03*
X82550000Y78359000D03*
X82550000Y85979000D03*
X80010000Y85979000D03*
D18*
X77470000Y85979000D03*
X74930000Y85979000D03*
D15*
X72430640Y71755000D03*
X77431900Y71755000D03*
D17*
X72390000Y95504000D03*
D15*
X74930000Y95504000D03*
X77470000Y95504000D03*
X80010000Y95504000D03*
D17*
X64770000Y95504000D03*
D15*
X67310000Y95504000D03*
D14*
X17145000Y47752000D03*
X6985000Y47752000D03*
X28829000Y47752000D03*
X26289000Y47752000D03*
X23749000Y47752000D03*
X21209000Y47752000D03*
D13*
X2794000Y47752000D03*
D17*
X9652000Y95504000D03*
D15*
X12192000Y95504000D03*
D17*
X17272000Y95504000D03*
D15*
X19812000Y95504000D03*
X22352000Y95504000D03*
X24892000Y95504000D03*
X17312640Y71755000D03*
X22313900Y71755000D03*
X19812000Y78359000D03*
X22352000Y78359000D03*
X24892000Y78359000D03*
X27432000Y78359000D03*
X27432000Y85979000D03*
X24892000Y85979000D03*
D18*
X22352000Y85979000D03*
X19812000Y85979000D03*
D15*
X28448000Y64897000D03*
D17*
X28448000Y68707000D03*
D15*
X22352000Y60492000D03*
D17*
X22352000Y62992000D03*
D15*
X40386000Y70358000D03*
X40386000Y72898000D03*
X40386000Y75438000D03*
X24892000Y72390000D03*
X35052000Y72390000D03*
D17*
X40386000Y88392000D03*
D15*
X40386000Y90892000D03*
D17*
X15113000Y65024000D03*
D15*
X15113000Y67564000D03*
D17*
X35306000Y68707000D03*
D15*
X32766000Y68707000D03*
D17*
X40386000Y81407000D03*
D15*
X40386000Y83947000D03*
D16*
X7112000Y90741500D03*
X9652000Y90741500D03*
X12192000Y90741500D03*
X14732000Y90741500D03*
X17272000Y90741500D03*
X19812000Y90741500D03*
X22352000Y90741500D03*
X24892000Y90741500D03*
X27432000Y90741500D03*
X29972000Y90741500D03*
X32512000Y90741500D03*
X35052000Y90741500D03*
X7112000Y75501500D03*
X9652000Y75501500D03*
X12192000Y75501500D03*
X14732000Y75501500D03*
X17272000Y75501500D03*
X19812000Y75501500D03*
X22352000Y75501500D03*
X24892000Y75501500D03*
X27432000Y75501500D03*
X29972000Y75501500D03*
X32512000Y75501500D03*
X35052000Y75501500D03*
D15*
X22352000Y68580000D03*
X24892000Y68580000D03*
X19812000Y68580000D03*
X22352000Y13462000D03*
X24892000Y13462000D03*
X19812000Y13462000D03*
D16*
X7112000Y20383500D03*
X9652000Y20383500D03*
X12192000Y20383500D03*
X14732000Y20383500D03*
X17272000Y20383500D03*
X19812000Y20383500D03*
X22352000Y20383500D03*
X24892000Y20383500D03*
X27432000Y20383500D03*
X29972000Y20383500D03*
X32512000Y20383500D03*
X35052000Y20383500D03*
X7112000Y35623500D03*
X9652000Y35623500D03*
X12192000Y35623500D03*
X14732000Y35623500D03*
X17272000Y35623500D03*
X19812000Y35623500D03*
X22352000Y35623500D03*
X24892000Y35623500D03*
X27432000Y35623500D03*
X29972000Y35623500D03*
X32512000Y35623500D03*
X35052000Y35623500D03*
D17*
X40386000Y26289000D03*
D15*
X40386000Y28829000D03*
D17*
X35306000Y13589000D03*
D15*
X32766000Y13589000D03*
D17*
X15113000Y9906000D03*
D15*
X15113000Y12446000D03*
D17*
X40386000Y33274000D03*
D15*
X40386000Y35774000D03*
X24892000Y17272000D03*
X35052000Y17272000D03*
X40386000Y15240000D03*
X40386000Y17780000D03*
X40386000Y20320000D03*
X22352000Y5374000D03*
D17*
X22352000Y7874000D03*
D15*
X28448000Y9779000D03*
D17*
X28448000Y13589000D03*
D15*
X19812000Y23241000D03*
X22352000Y23241000D03*
X24892000Y23241000D03*
X27432000Y23241000D03*
X27432000Y30861000D03*
X24892000Y30861000D03*
D18*
X22352000Y30861000D03*
X19812000Y30861000D03*
D15*
X17312640Y16637000D03*
X22313900Y16637000D03*
D17*
X17272000Y40386000D03*
D15*
X19812000Y40386000D03*
X22352000Y40386000D03*
X24892000Y40386000D03*
D17*
X9652000Y40386000D03*
D15*
X12192000Y40386000D03*
D19*
X64770000Y37465000D02*
X64770000Y40386000D01*
D20*
X90932000Y33528000D02*
X69723000Y33528000D01*
X69723000Y33528000D02*
X69596000Y33401000D01*
X95504000Y35774000D02*
X93178000Y35774000D01*
X90932000Y33528000D02*
X93178000Y35774000D01*
D21*
X69850000Y23114000D02*
X69850000Y33147000D01*
X69850000Y33147000D02*
X69596000Y33401000D01*
X64770000Y33401000D02*
X64770000Y35623500D01*
X69596000Y33401000D02*
X64770000Y33401000D01*
X70231000Y8636000D02*
X70231000Y7112000D01*
X71969000Y5374000D02*
X77470000Y5374000D01*
X70231000Y7112000D02*
X71969000Y5374000D01*
X70231000Y9906000D02*
X70231000Y8636000D01*
X70231000Y8636000D02*
X63500000Y8636000D01*
X69850000Y20383500D02*
X69850000Y16002000D01*
X69850000Y16002000D02*
X71628000Y14224000D01*
X74930000Y23241000D02*
X69977000Y23241000D01*
X69850000Y23114000D02*
X69850000Y20383500D01*
X69977000Y23241000D02*
X69850000Y23114000D01*
X63500000Y8636000D02*
X62357000Y8636000D01*
X64770000Y37465000D02*
X64770000Y35623500D01*
X61214000Y37465000D02*
X64770000Y37465000D01*
X58293000Y34544000D02*
X61214000Y37465000D01*
X58293000Y12700000D02*
X58293000Y34544000D01*
X62357000Y8636000D02*
X58293000Y12700000D01*
D20*
X95504000Y35774000D02*
X97068000Y35774000D01*
X97536000Y30861000D02*
X95504000Y28829000D01*
X97536000Y35306000D02*
X97536000Y30861000D01*
X97068000Y35774000D02*
X97536000Y35306000D01*
D21*
X74168000Y14224000D02*
X74930000Y13462000D01*
X71628000Y14224000D02*
X74168000Y14224000D01*
D19*
X64770000Y92583000D02*
X64770000Y95504000D01*
D20*
X90932000Y88646000D02*
X69723000Y88646000D01*
X69723000Y88646000D02*
X69596000Y88519000D01*
X95504000Y90892000D02*
X93178000Y90892000D01*
X90932000Y88646000D02*
X93178000Y90892000D01*
D21*
X69850000Y78232000D02*
X69850000Y88265000D01*
X69850000Y88265000D02*
X69596000Y88519000D01*
X64770000Y88519000D02*
X64770000Y90741500D01*
X69596000Y88519000D02*
X64770000Y88519000D01*
X70231000Y63754000D02*
X70231000Y62230000D01*
X71969000Y60492000D02*
X77470000Y60492000D01*
X70231000Y62230000D02*
X71969000Y60492000D01*
X70231000Y65024000D02*
X70231000Y63754000D01*
X70231000Y63754000D02*
X63500000Y63754000D01*
X69850000Y75501500D02*
X69850000Y71120000D01*
X69850000Y71120000D02*
X71628000Y69342000D01*
D20*
X74930000Y78359000D02*
X69977000Y78359000D01*
X69977000Y78359000D02*
X69850000Y78232000D01*
D21*
X69850000Y78232000D02*
X69850000Y75501500D01*
X63500000Y63754000D02*
X62357000Y63754000D01*
X64770000Y92583000D02*
X64770000Y90741500D01*
X61214000Y92583000D02*
X64770000Y92583000D01*
X58293000Y89662000D02*
X61214000Y92583000D01*
X58293000Y67818000D02*
X58293000Y89662000D01*
X62357000Y63754000D02*
X58293000Y67818000D01*
D20*
X95504000Y90892000D02*
X97068000Y90892000D01*
X97536000Y85979000D02*
X95504000Y83947000D01*
X97536000Y90424000D02*
X97536000Y85979000D01*
X97068000Y90892000D02*
X97536000Y90424000D01*
D21*
X74168000Y69342000D02*
X74930000Y68580000D01*
X71628000Y69342000D02*
X74168000Y69342000D01*
X16510000Y69342000D02*
X19050000Y69342000D01*
X19050000Y69342000D02*
X19812000Y68580000D01*
D20*
X42418000Y85979000D02*
X40386000Y83947000D01*
X40386000Y90892000D02*
X41950000Y90892000D01*
X41950000Y90892000D02*
X42418000Y90424000D01*
X42418000Y90424000D02*
X42418000Y85979000D01*
D21*
X9652000Y92583000D02*
X9652000Y90741500D01*
D20*
X14859000Y78359000D02*
X14732000Y78232000D01*
X19812000Y78359000D02*
X14859000Y78359000D01*
D21*
X14732000Y78232000D02*
X14732000Y75501500D01*
X14732000Y71120000D02*
X16510000Y69342000D01*
X14732000Y75501500D02*
X14732000Y71120000D01*
X15113000Y65024000D02*
X15113000Y63754000D01*
X16851000Y60492000D02*
X22352000Y60492000D01*
X14478000Y88519000D02*
X9652000Y88519000D01*
X9652000Y88519000D02*
X9652000Y90741500D01*
X14732000Y88265000D02*
X14478000Y88519000D01*
X14732000Y78232000D02*
X14732000Y88265000D01*
D20*
X14605000Y88646000D02*
X14478000Y88519000D01*
X40386000Y90892000D02*
X38060000Y90892000D01*
X35814000Y88646000D02*
X38060000Y90892000D01*
X35814000Y88646000D02*
X14605000Y88646000D01*
D19*
X9652000Y92583000D02*
X9652000Y95504000D01*
X9652000Y37465000D02*
X9652000Y40386000D01*
D20*
X35814000Y33528000D02*
X14605000Y33528000D01*
X14605000Y33528000D02*
X14478000Y33401000D01*
X40386000Y35774000D02*
X38060000Y35774000D01*
X35814000Y33528000D02*
X38060000Y35774000D01*
D21*
X14732000Y23114000D02*
X14732000Y33147000D01*
X14732000Y33147000D02*
X14478000Y33401000D01*
X9652000Y33401000D02*
X9652000Y35623500D01*
X14478000Y33401000D02*
X9652000Y33401000D01*
X15113000Y8636000D02*
X15113000Y7112000D01*
X16851000Y5374000D02*
X22352000Y5374000D01*
X15113000Y7112000D02*
X16851000Y5374000D01*
X15113000Y9906000D02*
X15113000Y8636000D01*
X15113000Y8636000D02*
X8382000Y8636000D01*
X14732000Y20383500D02*
X14732000Y16002000D01*
X14732000Y16002000D02*
X16510000Y14224000D01*
D20*
X19812000Y23241000D02*
X14859000Y23241000D01*
X14859000Y23241000D02*
X14732000Y23114000D01*
D21*
X14732000Y23114000D02*
X14732000Y20383500D01*
X8382000Y8636000D02*
X7239000Y8636000D01*
X9652000Y37465000D02*
X9652000Y35623500D01*
X6096000Y37465000D02*
X9652000Y37465000D01*
X3175000Y34544000D02*
X6096000Y37465000D01*
X3175000Y12700000D02*
X3175000Y34544000D01*
X7239000Y8636000D02*
X3175000Y12700000D01*
D20*
X40386000Y35774000D02*
X41950000Y35774000D01*
X42418000Y30861000D02*
X40386000Y28829000D01*
X42418000Y35306000D02*
X42418000Y30861000D01*
X41950000Y35774000D02*
X42418000Y35306000D01*
D21*
X19050000Y14224000D02*
X19812000Y13462000D01*
X16510000Y14224000D02*
X19050000Y14224000D01*
X6096000Y92583000D02*
X9652000Y92583000D01*
X15113000Y62230000D02*
X16851000Y60492000D01*
X15113000Y63754000D02*
X15113000Y62230000D01*
X3175000Y89662000D02*
X6096000Y92583000D01*
X7239000Y63754000D02*
X3175000Y67818000D01*
X3175000Y67818000D02*
X3175000Y89662000D01*
X8382000Y63754000D02*
X7239000Y63754000D01*
X15113000Y63754000D02*
X8382000Y63754000D01*
D20*
X74930000Y20383500D02*
X74930000Y18923000D01*
X74930000Y18923000D02*
X72644000Y16637000D01*
D19*
X72644000Y16637000D02*
X72430640Y16637000D01*
D20*
X74930000Y75501500D02*
X74930000Y74041000D01*
X74930000Y74041000D02*
X72644000Y71755000D01*
D19*
X72644000Y71755000D02*
X72430640Y71755000D01*
X17526000Y71755000D02*
X17312640Y71755000D01*
D20*
X19812000Y74041000D02*
X17526000Y71755000D01*
X19812000Y75501500D02*
X19812000Y74041000D01*
X19812000Y20383500D02*
X19812000Y18923000D01*
X19812000Y18923000D02*
X17526000Y16637000D01*
D19*
X17526000Y16637000D02*
X17312640Y16637000D01*
X80010000Y23241000D02*
X80010000Y20383500D01*
D20*
X80010000Y20383500D02*
X80010000Y17272000D01*
D19*
X80010000Y78359000D02*
X80010000Y75501500D01*
D20*
X80010000Y75501500D02*
X80010000Y72390000D01*
X24892000Y75501500D02*
X24892000Y72390000D01*
X24892000Y78359000D02*
X24892000Y75501500D01*
X24892000Y23241000D02*
X24892000Y20383500D01*
X24892000Y20383500D02*
X24892000Y17272000D01*
D19*
X69850000Y35623500D02*
X69850000Y37846000D01*
X69850000Y37846000D02*
X67310000Y40386000D01*
X82550000Y23241000D02*
X82550000Y20383500D01*
D20*
X82550000Y23241000D02*
X82550000Y24892000D01*
X82550000Y24892000D02*
X79502000Y27940000D01*
X79502000Y27940000D02*
X76454000Y27940000D01*
X76454000Y27940000D02*
X74930000Y29464000D01*
X74930000Y29464000D02*
X74930000Y30861000D01*
D19*
X69850000Y90741500D02*
X69850000Y92964000D01*
X69850000Y92964000D02*
X67310000Y95504000D01*
X82550000Y78359000D02*
X82550000Y75501500D01*
D20*
X82550000Y78359000D02*
X82550000Y80010000D01*
X82550000Y80010000D02*
X79502000Y83058000D01*
X79502000Y83058000D02*
X76454000Y83058000D01*
X76454000Y83058000D02*
X74930000Y84582000D01*
X74930000Y84582000D02*
X74930000Y85979000D01*
X27432000Y80010000D02*
X24384000Y83058000D01*
X27432000Y78359000D02*
X27432000Y80010000D01*
X19812000Y84582000D02*
X19812000Y85979000D01*
X21336000Y83058000D02*
X19812000Y84582000D01*
X24384000Y83058000D02*
X21336000Y83058000D01*
X27432000Y78359000D02*
X27432000Y75501500D01*
D19*
X14732000Y92964000D02*
X12192000Y95504000D01*
X14732000Y90741500D02*
X14732000Y92964000D01*
X14732000Y35623500D02*
X14732000Y37846000D01*
X14732000Y37846000D02*
X12192000Y40386000D01*
D20*
X27432000Y23241000D02*
X27432000Y20383500D01*
X27432000Y23241000D02*
X27432000Y24892000D01*
X27432000Y24892000D02*
X24384000Y27940000D01*
X24384000Y27940000D02*
X21336000Y27940000D01*
X21336000Y27940000D02*
X19812000Y29464000D01*
X19812000Y29464000D02*
X19812000Y30861000D01*
D19*
X72390000Y35623500D02*
X72390000Y40386000D01*
X72390000Y90741500D02*
X72390000Y95504000D01*
X17272000Y90741500D02*
X17272000Y95504000D01*
X17272000Y35623500D02*
X17272000Y40386000D01*
X74930000Y35623500D02*
X74930000Y40386000D01*
X74930000Y90741500D02*
X74930000Y95504000D01*
X19812000Y90741500D02*
X19812000Y95504000D01*
X19812000Y35623500D02*
X19812000Y40386000D01*
X77470000Y35623500D02*
X77470000Y40386000D01*
X77470000Y90741500D02*
X77470000Y95504000D01*
X22352000Y90741500D02*
X22352000Y95504000D01*
X22352000Y35623500D02*
X22352000Y40386000D01*
X80010000Y35623500D02*
X80010000Y40386000D01*
X80010000Y90741500D02*
X80010000Y95504000D01*
X24892000Y90741500D02*
X24892000Y95504000D01*
X24892000Y35623500D02*
X24892000Y40386000D01*
D20*
X72136000Y29210000D02*
X72136000Y31496000D01*
X72136000Y31496000D02*
X73025000Y32385000D01*
X73025000Y32385000D02*
X80010000Y32385000D01*
X80010000Y32385000D02*
X80010000Y30861000D01*
X77470000Y25019000D02*
X76073000Y26416000D01*
X76073000Y26416000D02*
X74930000Y26416000D01*
X74930000Y26416000D02*
X72136000Y29210000D01*
X77470000Y23241000D02*
X77470000Y25019000D01*
D19*
X95504000Y20320000D02*
X95504000Y17780000D01*
D20*
X95504000Y20320000D02*
X95504000Y26289000D01*
D19*
X80010000Y30861000D02*
X80010000Y29845000D01*
D20*
X83566000Y26289000D02*
X95504000Y26289000D01*
X80010000Y29845000D02*
X83566000Y26289000D01*
X72136000Y84328000D02*
X72136000Y86614000D01*
X72136000Y86614000D02*
X73025000Y87503000D01*
X73025000Y87503000D02*
X80010000Y87503000D01*
X80010000Y87503000D02*
X80010000Y85979000D01*
X77470000Y80137000D02*
X76073000Y81534000D01*
X76073000Y81534000D02*
X74930000Y81534000D01*
X74930000Y81534000D02*
X72136000Y84328000D01*
X77470000Y78359000D02*
X77470000Y80137000D01*
X95504000Y75438000D02*
X95504000Y72898000D01*
X95504000Y75438000D02*
X95504000Y81407000D01*
D19*
X80010000Y85979000D02*
X80010000Y84963000D01*
D20*
X83566000Y81407000D02*
X95504000Y81407000D01*
X80010000Y84963000D02*
X83566000Y81407000D01*
X24892000Y84963000D02*
X28448000Y81407000D01*
X28448000Y81407000D02*
X40386000Y81407000D01*
D19*
X24892000Y85979000D02*
X24892000Y84963000D01*
D20*
X40386000Y75438000D02*
X40386000Y81407000D01*
X40386000Y75438000D02*
X40386000Y72898000D01*
X17018000Y86614000D02*
X17907000Y87503000D01*
X17018000Y84328000D02*
X17018000Y86614000D01*
X22352000Y78359000D02*
X22352000Y80137000D01*
X19812000Y81534000D02*
X17018000Y84328000D01*
X20955000Y81534000D02*
X19812000Y81534000D01*
X22352000Y80137000D02*
X20955000Y81534000D01*
X24892000Y87503000D02*
X24892000Y85979000D01*
X17907000Y87503000D02*
X24892000Y87503000D01*
X17018000Y29210000D02*
X17018000Y31496000D01*
X17018000Y31496000D02*
X17907000Y32385000D01*
X17907000Y32385000D02*
X24892000Y32385000D01*
X24892000Y32385000D02*
X24892000Y30861000D01*
X22352000Y25019000D02*
X20955000Y26416000D01*
X20955000Y26416000D02*
X19812000Y26416000D01*
X19812000Y26416000D02*
X17018000Y29210000D01*
X22352000Y23241000D02*
X22352000Y25019000D01*
D19*
X40386000Y20320000D02*
X40386000Y17780000D01*
D20*
X40386000Y20320000D02*
X40386000Y26289000D01*
D19*
X24892000Y30861000D02*
X24892000Y29845000D01*
D20*
X28448000Y26289000D02*
X40386000Y26289000D01*
X24892000Y29845000D02*
X28448000Y26289000D01*
D21*
X92964000Y6858000D02*
X92964000Y11049000D01*
X92964000Y11049000D02*
X90424000Y13589000D01*
X37846000Y6985000D02*
X37846000Y11049000D01*
X37846000Y11049000D02*
X35306000Y13589000D01*
X37846000Y61976000D02*
X37846000Y66167000D01*
X37846000Y66167000D02*
X35306000Y68707000D01*
X92964000Y62103000D02*
X92964000Y66167000D01*
X92964000Y66167000D02*
X90424000Y68707000D01*
X80010000Y11430000D02*
X80010000Y13462000D01*
X80010000Y13462000D02*
X80010000Y14224000D01*
X80010000Y14224000D02*
X81280000Y15494000D01*
X81280000Y15494000D02*
X89662000Y15494000D01*
X89662000Y15494000D02*
X90424000Y14732000D01*
X83566000Y9779000D02*
X81661000Y9779000D01*
X81661000Y9779000D02*
X80010000Y11430000D01*
X90424000Y14732000D02*
X90424000Y13589000D01*
X80010000Y66548000D02*
X80010000Y68580000D01*
X80010000Y68580000D02*
X80010000Y69342000D01*
X80010000Y69342000D02*
X81280000Y70612000D01*
X81280000Y70612000D02*
X89662000Y70612000D01*
X89662000Y70612000D02*
X90424000Y69850000D01*
X83566000Y64897000D02*
X81661000Y64897000D01*
X81661000Y64897000D02*
X80010000Y66548000D01*
X90424000Y69850000D02*
X90424000Y68707000D01*
X35306000Y69850000D02*
X35306000Y68707000D01*
X24892000Y69342000D02*
X26162000Y70612000D01*
X26162000Y70612000D02*
X34544000Y70612000D01*
X34544000Y70612000D02*
X35306000Y69850000D01*
X26543000Y64897000D02*
X24892000Y66548000D01*
X28448000Y64897000D02*
X26543000Y64897000D01*
X24892000Y68580000D02*
X24892000Y69342000D01*
X24892000Y66548000D02*
X24892000Y68580000D01*
X24892000Y11430000D02*
X24892000Y13462000D01*
X24892000Y13462000D02*
X24892000Y14224000D01*
X24892000Y14224000D02*
X26162000Y15494000D01*
X26162000Y15494000D02*
X34544000Y15494000D01*
X34544000Y15494000D02*
X35306000Y14732000D01*
X28448000Y9779000D02*
X26543000Y9779000D01*
X26543000Y9779000D02*
X24892000Y11430000D01*
X35306000Y14732000D02*
X35306000Y13589000D01*
X24384000Y61976000D02*
X32766000Y61976000D01*
X77470000Y7874000D02*
X78613000Y7874000D01*
X79629000Y6858000D02*
X87884000Y6858000D01*
X78613000Y7874000D02*
X79629000Y6858000D01*
X87884000Y6858000D02*
X87884000Y13589000D01*
X32766000Y6985000D02*
X32766000Y13589000D01*
X22352000Y7874000D02*
X23622000Y7874000D01*
X24511000Y6985000D02*
X32766000Y6985000D01*
X23622000Y7874000D02*
X24511000Y6985000D01*
X77470000Y62992000D02*
X78613000Y62992000D01*
X79502000Y62103000D02*
X87884000Y62103000D01*
X78613000Y62992000D02*
X79502000Y62103000D01*
X87884000Y68707000D02*
X87884000Y62103000D01*
X22352000Y62992000D02*
X23368000Y62992000D01*
X23368000Y62992000D02*
X24384000Y61976000D01*
X63500000Y13716000D02*
X62103000Y13716000D01*
X59944000Y33337500D02*
X62230000Y35623500D01*
X59944000Y15875000D02*
X59944000Y33337500D01*
X62103000Y13716000D02*
X59944000Y15875000D01*
X87884000Y13589000D02*
X83566000Y13589000D01*
X63500000Y13716000D02*
X64389000Y13716000D01*
X64389000Y13716000D02*
X65659000Y12446000D01*
X65659000Y12446000D02*
X70231000Y12446000D01*
X70231000Y12446000D02*
X72644000Y12446000D01*
X72644000Y12446000D02*
X77216000Y7874000D01*
X63500000Y68834000D02*
X62103000Y68834000D01*
X59944000Y88455500D02*
X62230000Y90741500D01*
X59944000Y70993000D02*
X59944000Y88455500D01*
X62103000Y68834000D02*
X59944000Y70993000D01*
X87884000Y68707000D02*
X83566000Y68707000D01*
X63500000Y68834000D02*
X64389000Y68834000D01*
X64389000Y68834000D02*
X65659000Y67564000D01*
X65659000Y67564000D02*
X70231000Y67564000D01*
X70231000Y67564000D02*
X72644000Y67564000D01*
X72644000Y67564000D02*
X77216000Y62992000D01*
X17526000Y67564000D02*
X22098000Y62992000D01*
X15113000Y67564000D02*
X17526000Y67564000D01*
X10541000Y67564000D02*
X15113000Y67564000D01*
X9271000Y68834000D02*
X10541000Y67564000D01*
X8382000Y68834000D02*
X9271000Y68834000D01*
X32766000Y68707000D02*
X28448000Y68707000D01*
X32766000Y61976000D02*
X32766000Y68707000D01*
X6985000Y68834000D02*
X4826000Y70993000D01*
X4826000Y70993000D02*
X4826000Y88455500D01*
X4826000Y88455500D02*
X7112000Y90741500D01*
X8382000Y68834000D02*
X6985000Y68834000D01*
X8382000Y13716000D02*
X6985000Y13716000D01*
X4826000Y33337500D02*
X7112000Y35623500D01*
X4826000Y15875000D02*
X4826000Y33337500D01*
X6985000Y13716000D02*
X4826000Y15875000D01*
X32766000Y13589000D02*
X28448000Y13589000D01*
X8382000Y13716000D02*
X9271000Y13716000D01*
X9271000Y13716000D02*
X10541000Y12446000D01*
X10541000Y12446000D02*
X15113000Y12446000D01*
X15113000Y12446000D02*
X17526000Y12446000D01*
X17526000Y12446000D02*
X22098000Y7874000D01*
D20*
X82550000Y30861000D02*
X93091000Y30861000D01*
X93091000Y30861000D02*
X95504000Y33274000D01*
X82550000Y85979000D02*
X93091000Y85979000D01*
X93091000Y85979000D02*
X95504000Y88392000D01*
X37973000Y85979000D02*
X40386000Y88392000D01*
X27432000Y85979000D02*
X37973000Y85979000D01*
X27432000Y30861000D02*
X37973000Y30861000D01*
X37973000Y30861000D02*
X40386000Y33274000D01*
X77431900Y16637000D02*
X77431900Y13500100D01*
D19*
X77431900Y13500100D02*
X77470000Y13462000D01*
D20*
X77431900Y71755000D02*
X77431900Y68618100D01*
D19*
X77431900Y68618100D02*
X77470000Y68580000D01*
X22313900Y68618100D02*
X22352000Y68580000D01*
X22313900Y71755000D02*
X22313900Y68618100D01*
D20*
X22313900Y16637000D02*
X22313900Y13500100D01*
D19*
X22313900Y13500100D02*
X22352000Y13462000D01*
D20*
X95504000Y15240000D02*
X94107000Y15240000D01*
X94107000Y15240000D02*
X92075000Y17272000D01*
X92075000Y17272000D02*
X90170000Y17272000D01*
X95504000Y70358000D02*
X94107000Y70358000D01*
X94107000Y70358000D02*
X92075000Y72390000D01*
X92075000Y72390000D02*
X90170000Y72390000D01*
X38989000Y70358000D02*
X36957000Y72390000D01*
X40386000Y70358000D02*
X38989000Y70358000D01*
X36957000Y72390000D02*
X35052000Y72390000D01*
X40386000Y15240000D02*
X38989000Y15240000D01*
X38989000Y15240000D02*
X36957000Y17272000D01*
X36957000Y17272000D02*
X35052000Y17272000D01*
D19*
X2794000Y47752000D02*
X6985000Y47752000D01*
D20*
X57658000Y47752000D02*
X61513591Y47752000D01*
D19*
X17145000Y47752000D02*
X21209000Y47752000D01*
X52197000Y2921000D02*
X52197000Y7112000D01*
D20*
X52197000Y80010000D02*
X52197000Y82550000D01*
D19*
X52197000Y25781000D02*
X52197000Y28321000D01*
X26289000Y47752000D02*
X28829000Y47752000D01*
D20*
X80899000Y47752000D02*
X83439000Y47752000D01*
X52197000Y77470000D02*
X52197000Y80010000D01*
D19*
X52197000Y23241000D02*
X52197000Y25781000D01*
X23749000Y47752000D02*
X26289000Y47752000D01*
D20*
X78359000Y47752000D02*
X80899000Y47752000D01*
X52197000Y57531000D02*
X52197000Y61595000D01*
X52197000Y74930000D02*
X52197000Y77470000D01*
D19*
X52197000Y20701000D02*
X52197000Y23241000D01*
X21209000Y47752000D02*
X23749000Y47752000D01*
X52197000Y17272000D02*
X52197000Y20701000D01*
D20*
X75819000Y47752000D02*
X78359000Y47752000D01*
X71882000Y47752000D02*
X75819000Y47752000D01*
X52197000Y71755000D02*
X52197000Y74930000D01*
M02*
