G04 #@! TF.FileFunction,Soldermask,Bot*
%FSLAX46Y46*%
G04 Gerber Fmt 4.6, Leading zero omitted, Abs format (unit mm)*
G04 Created by KiCad (PCBNEW 4.0.2+e4-6225~38~ubuntu14.04.1-stable) date Tue 17 May 2016 20:32:36 AEST*
%MOMM*%
G01*
G04 APERTURE LIST*
%ADD10C,0.100000*%
%ADD11R,2.286000X2.286000*%
%ADD12C,2.286000*%
%ADD13R,2.235200X2.235200*%
%ADD14C,1.998980*%
%ADD15O,2.032000X2.032000*%
%ADD16O,1.727200X2.032000*%
%ADD17R,2.032000X2.032000*%
%ADD18O,2.032000X1.778000*%
G04 APERTURE END LIST*
D10*
D11*
X63119000Y63754000D03*
D12*
X63119000Y68834000D03*
D11*
X63119000Y8636000D03*
D12*
X63119000Y13716000D03*
D11*
X8001000Y8636000D03*
D12*
X8001000Y13716000D03*
D11*
X8382000Y63754000D03*
D12*
X8382000Y68834000D03*
D11*
X92964000Y6858000D03*
D12*
X87884000Y6858000D03*
D11*
X37846000Y6985000D03*
D12*
X32766000Y6985000D03*
D11*
X92964000Y62103000D03*
D12*
X87884000Y62103000D03*
D11*
X37846000Y61976000D03*
D12*
X32766000Y61976000D03*
D13*
X52197000Y2921000D03*
D14*
X52197000Y28321000D03*
X52197000Y25781000D03*
X52197000Y23241000D03*
X52197000Y20701000D03*
X52197000Y7112000D03*
X52197000Y17272000D03*
X52197000Y61595000D03*
X52197000Y71755000D03*
X52197000Y82550000D03*
X52197000Y80010000D03*
X52197000Y77470000D03*
X52197000Y74930000D03*
D13*
X52197000Y57531000D03*
X57658000Y47752000D03*
D14*
X83439000Y47752000D03*
X80899000Y47752000D03*
X78359000Y47752000D03*
X75819000Y47752000D03*
X71882000Y47752000D03*
X61722000Y47752000D03*
D15*
X77470000Y13462000D03*
X80010000Y13462000D03*
X74930000Y13462000D03*
D16*
X62230000Y20383500D03*
X64770000Y20383500D03*
X67310000Y20383500D03*
X69850000Y20383500D03*
X72390000Y20383500D03*
X74930000Y20383500D03*
X77470000Y20383500D03*
X80010000Y20383500D03*
X82550000Y20383500D03*
X85090000Y20383500D03*
X87630000Y20383500D03*
X90170000Y20383500D03*
X62230000Y35623500D03*
X64770000Y35623500D03*
X67310000Y35623500D03*
X69850000Y35623500D03*
X72390000Y35623500D03*
X74930000Y35623500D03*
X77470000Y35623500D03*
X80010000Y35623500D03*
X82550000Y35623500D03*
X85090000Y35623500D03*
X87630000Y35623500D03*
X90170000Y35623500D03*
D17*
X95504000Y26289000D03*
D15*
X95504000Y28829000D03*
D17*
X90424000Y13589000D03*
D15*
X87884000Y13589000D03*
D17*
X70231000Y9906000D03*
D15*
X70231000Y12446000D03*
D17*
X95504000Y33274000D03*
D15*
X95504000Y35774000D03*
X80010000Y17272000D03*
X90170000Y17272000D03*
X95504000Y15240000D03*
X95504000Y17780000D03*
X95504000Y20320000D03*
X77470000Y5374000D03*
D17*
X77470000Y7874000D03*
D15*
X83566000Y9779000D03*
D17*
X83566000Y13589000D03*
D15*
X74930000Y23241000D03*
X77470000Y23241000D03*
X80010000Y23241000D03*
X82550000Y23241000D03*
X82550000Y30861000D03*
X80010000Y30861000D03*
D18*
X77470000Y30861000D03*
X74930000Y30861000D03*
D15*
X72430640Y16637000D03*
X77431900Y16637000D03*
D17*
X72390000Y40386000D03*
D15*
X74930000Y40386000D03*
X77470000Y40386000D03*
X80010000Y40386000D03*
D17*
X64770000Y40386000D03*
D15*
X67310000Y40386000D03*
X77470000Y68580000D03*
X80010000Y68580000D03*
X74930000Y68580000D03*
D16*
X62230000Y75501500D03*
X64770000Y75501500D03*
X67310000Y75501500D03*
X69850000Y75501500D03*
X72390000Y75501500D03*
X74930000Y75501500D03*
X77470000Y75501500D03*
X80010000Y75501500D03*
X82550000Y75501500D03*
X85090000Y75501500D03*
X87630000Y75501500D03*
X90170000Y75501500D03*
X62230000Y90741500D03*
X64770000Y90741500D03*
X67310000Y90741500D03*
X69850000Y90741500D03*
X72390000Y90741500D03*
X74930000Y90741500D03*
X77470000Y90741500D03*
X80010000Y90741500D03*
X82550000Y90741500D03*
X85090000Y90741500D03*
X87630000Y90741500D03*
X90170000Y90741500D03*
D17*
X95504000Y81407000D03*
D15*
X95504000Y83947000D03*
D17*
X90424000Y68707000D03*
D15*
X87884000Y68707000D03*
D17*
X70231000Y65024000D03*
D15*
X70231000Y67564000D03*
D17*
X95504000Y88392000D03*
D15*
X95504000Y90892000D03*
X80010000Y72390000D03*
X90170000Y72390000D03*
X95504000Y70358000D03*
X95504000Y72898000D03*
X95504000Y75438000D03*
X77470000Y60492000D03*
D17*
X77470000Y62992000D03*
D15*
X83566000Y64897000D03*
D17*
X83566000Y68707000D03*
D15*
X74930000Y78359000D03*
X77470000Y78359000D03*
X80010000Y78359000D03*
X82550000Y78359000D03*
X82550000Y85979000D03*
X80010000Y85979000D03*
D18*
X77470000Y85979000D03*
X74930000Y85979000D03*
D15*
X72430640Y71755000D03*
X77431900Y71755000D03*
D17*
X72390000Y95504000D03*
D15*
X74930000Y95504000D03*
X77470000Y95504000D03*
X80010000Y95504000D03*
D17*
X64770000Y95504000D03*
D15*
X67310000Y95504000D03*
D14*
X17145000Y47752000D03*
X6985000Y47752000D03*
X28829000Y47752000D03*
X26289000Y47752000D03*
X23749000Y47752000D03*
X21209000Y47752000D03*
D13*
X2794000Y47752000D03*
D17*
X9652000Y95504000D03*
D15*
X12192000Y95504000D03*
D17*
X17272000Y95504000D03*
D15*
X19812000Y95504000D03*
X22352000Y95504000D03*
X24892000Y95504000D03*
X17312640Y71755000D03*
X22313900Y71755000D03*
X19812000Y78359000D03*
X22352000Y78359000D03*
X24892000Y78359000D03*
X27432000Y78359000D03*
X27432000Y85979000D03*
X24892000Y85979000D03*
D18*
X22352000Y85979000D03*
X19812000Y85979000D03*
D15*
X28448000Y64897000D03*
D17*
X28448000Y68707000D03*
D15*
X22352000Y60492000D03*
D17*
X22352000Y62992000D03*
D15*
X40386000Y70358000D03*
X40386000Y72898000D03*
X40386000Y75438000D03*
X24892000Y72390000D03*
X35052000Y72390000D03*
D17*
X40386000Y88392000D03*
D15*
X40386000Y90892000D03*
D17*
X15113000Y65024000D03*
D15*
X15113000Y67564000D03*
D17*
X35306000Y68707000D03*
D15*
X32766000Y68707000D03*
D17*
X40386000Y81407000D03*
D15*
X40386000Y83947000D03*
D16*
X7112000Y90741500D03*
X9652000Y90741500D03*
X12192000Y90741500D03*
X14732000Y90741500D03*
X17272000Y90741500D03*
X19812000Y90741500D03*
X22352000Y90741500D03*
X24892000Y90741500D03*
X27432000Y90741500D03*
X29972000Y90741500D03*
X32512000Y90741500D03*
X35052000Y90741500D03*
X7112000Y75501500D03*
X9652000Y75501500D03*
X12192000Y75501500D03*
X14732000Y75501500D03*
X17272000Y75501500D03*
X19812000Y75501500D03*
X22352000Y75501500D03*
X24892000Y75501500D03*
X27432000Y75501500D03*
X29972000Y75501500D03*
X32512000Y75501500D03*
X35052000Y75501500D03*
D15*
X22352000Y68580000D03*
X24892000Y68580000D03*
X19812000Y68580000D03*
X22352000Y13462000D03*
X24892000Y13462000D03*
X19812000Y13462000D03*
D16*
X7112000Y20383500D03*
X9652000Y20383500D03*
X12192000Y20383500D03*
X14732000Y20383500D03*
X17272000Y20383500D03*
X19812000Y20383500D03*
X22352000Y20383500D03*
X24892000Y20383500D03*
X27432000Y20383500D03*
X29972000Y20383500D03*
X32512000Y20383500D03*
X35052000Y20383500D03*
X7112000Y35623500D03*
X9652000Y35623500D03*
X12192000Y35623500D03*
X14732000Y35623500D03*
X17272000Y35623500D03*
X19812000Y35623500D03*
X22352000Y35623500D03*
X24892000Y35623500D03*
X27432000Y35623500D03*
X29972000Y35623500D03*
X32512000Y35623500D03*
X35052000Y35623500D03*
D17*
X40386000Y26289000D03*
D15*
X40386000Y28829000D03*
D17*
X35306000Y13589000D03*
D15*
X32766000Y13589000D03*
D17*
X15113000Y9906000D03*
D15*
X15113000Y12446000D03*
D17*
X40386000Y33274000D03*
D15*
X40386000Y35774000D03*
X24892000Y17272000D03*
X35052000Y17272000D03*
X40386000Y15240000D03*
X40386000Y17780000D03*
X40386000Y20320000D03*
X22352000Y5374000D03*
D17*
X22352000Y7874000D03*
D15*
X28448000Y9779000D03*
D17*
X28448000Y13589000D03*
D15*
X19812000Y23241000D03*
X22352000Y23241000D03*
X24892000Y23241000D03*
X27432000Y23241000D03*
X27432000Y30861000D03*
X24892000Y30861000D03*
D18*
X22352000Y30861000D03*
X19812000Y30861000D03*
D15*
X17312640Y16637000D03*
X22313900Y16637000D03*
D17*
X17272000Y40386000D03*
D15*
X19812000Y40386000D03*
X22352000Y40386000D03*
X24892000Y40386000D03*
D17*
X9652000Y40386000D03*
D15*
X12192000Y40386000D03*
M02*
