G04 #@! TF.FileFunction,Legend,Top*
%FSLAX46Y46*%
G04 Gerber Fmt 4.6, Leading zero omitted, Abs format (unit mm)*
G04 Created by KiCad (PCBNEW 4.0.2+e4-6225~38~ubuntu14.04.1-stable) date Tue 17 May 2016 20:32:36 AEST*
%MOMM*%
G01*
G04 APERTURE LIST*
%ADD10C,0.100000*%
%ADD11C,0.300000*%
%ADD12C,0.254000*%
%ADD13C,0.150000*%
%ADD14C,0.075000*%
%ADD15C,0.304800*%
G04 APERTURE END LIST*
D10*
D11*
X56280857Y14199714D02*
X56280857Y13056857D01*
X55709429Y13628286D02*
X56852286Y13628286D01*
X56280857Y7771143D02*
X56280857Y6628286D01*
X56534857Y69825714D02*
X56534857Y68682857D01*
X55963429Y69254286D02*
X57106286Y69254286D01*
X56534857Y63397143D02*
X56534857Y62254286D01*
D12*
X43942000Y2286000D02*
G75*
G03X43942000Y2286000I-1524000J0D01*
G01*
X99060000Y2286000D02*
G75*
G03X99060000Y2286000I-1524000J0D01*
G01*
X43963022Y57404000D02*
G75*
G03X43963022Y57404000I-1545022J0D01*
G01*
X99017522Y57404000D02*
G75*
G03X99017522Y57404000I-1545022J0D01*
G01*
D11*
X15783142Y43414143D02*
X14640285Y43414143D01*
X15211714Y43985571D02*
X15211714Y42842714D01*
X13211713Y42485571D02*
X13925999Y42485571D01*
X13997428Y43199857D01*
X13925999Y43128429D01*
X13783142Y43057000D01*
X13425999Y43057000D01*
X13283142Y43128429D01*
X13211713Y43199857D01*
X13140285Y43342714D01*
X13140285Y43699857D01*
X13211713Y43842714D01*
X13283142Y43914143D01*
X13425999Y43985571D01*
X13783142Y43985571D01*
X13925999Y43914143D01*
X13997428Y43842714D01*
X12711714Y42485571D02*
X12211714Y43985571D01*
X11711714Y42485571D01*
X9283143Y42557000D02*
X9426000Y42485571D01*
X9640286Y42485571D01*
X9854571Y42557000D01*
X9997429Y42699857D01*
X10068857Y42842714D01*
X10140286Y43128429D01*
X10140286Y43342714D01*
X10068857Y43628429D01*
X9997429Y43771286D01*
X9854571Y43914143D01*
X9640286Y43985571D01*
X9497429Y43985571D01*
X9283143Y43914143D01*
X9211714Y43842714D01*
X9211714Y43342714D01*
X9497429Y43342714D01*
X8568857Y42985571D02*
X8568857Y43985571D01*
X8568857Y43128429D02*
X8497429Y43057000D01*
X8354571Y42985571D01*
X8140286Y42985571D01*
X7997429Y43057000D01*
X7926000Y43199857D01*
X7926000Y43985571D01*
X6568857Y43985571D02*
X6568857Y42485571D01*
X6568857Y43914143D02*
X6711714Y43985571D01*
X6997428Y43985571D01*
X7140286Y43914143D01*
X7211714Y43842714D01*
X7283143Y43699857D01*
X7283143Y43271286D01*
X7211714Y43128429D01*
X7140286Y43057000D01*
X6997428Y42985571D01*
X6711714Y42985571D01*
X6568857Y43057000D01*
X70647142Y43414143D02*
X69504285Y43414143D01*
X70075714Y43985571D02*
X70075714Y42842714D01*
X68075713Y42485571D02*
X68789999Y42485571D01*
X68861428Y43199857D01*
X68789999Y43128429D01*
X68647142Y43057000D01*
X68289999Y43057000D01*
X68147142Y43128429D01*
X68075713Y43199857D01*
X68004285Y43342714D01*
X68004285Y43699857D01*
X68075713Y43842714D01*
X68147142Y43914143D01*
X68289999Y43985571D01*
X68647142Y43985571D01*
X68789999Y43914143D01*
X68861428Y43842714D01*
X67575714Y42485571D02*
X67075714Y43985571D01*
X66575714Y42485571D01*
X64147143Y42557000D02*
X64290000Y42485571D01*
X64504286Y42485571D01*
X64718571Y42557000D01*
X64861429Y42699857D01*
X64932857Y42842714D01*
X65004286Y43128429D01*
X65004286Y43342714D01*
X64932857Y43628429D01*
X64861429Y43771286D01*
X64718571Y43914143D01*
X64504286Y43985571D01*
X64361429Y43985571D01*
X64147143Y43914143D01*
X64075714Y43842714D01*
X64075714Y43342714D01*
X64361429Y43342714D01*
X63432857Y42985571D02*
X63432857Y43985571D01*
X63432857Y43128429D02*
X63361429Y43057000D01*
X63218571Y42985571D01*
X63004286Y42985571D01*
X62861429Y43057000D01*
X62790000Y43199857D01*
X62790000Y43985571D01*
X61432857Y43985571D02*
X61432857Y42485571D01*
X61432857Y43914143D02*
X61575714Y43985571D01*
X61861428Y43985571D01*
X62004286Y43914143D01*
X62075714Y43842714D01*
X62147143Y43699857D01*
X62147143Y43271286D01*
X62075714Y43128429D01*
X62004286Y43057000D01*
X61861428Y42985571D01*
X61575714Y42985571D01*
X61432857Y43057000D01*
X70774142Y98659143D02*
X69631285Y98659143D01*
X70202714Y99230571D02*
X70202714Y98087714D01*
X68202713Y97730571D02*
X68916999Y97730571D01*
X68988428Y98444857D01*
X68916999Y98373429D01*
X68774142Y98302000D01*
X68416999Y98302000D01*
X68274142Y98373429D01*
X68202713Y98444857D01*
X68131285Y98587714D01*
X68131285Y98944857D01*
X68202713Y99087714D01*
X68274142Y99159143D01*
X68416999Y99230571D01*
X68774142Y99230571D01*
X68916999Y99159143D01*
X68988428Y99087714D01*
X67702714Y97730571D02*
X67202714Y99230571D01*
X66702714Y97730571D01*
X64274143Y97802000D02*
X64417000Y97730571D01*
X64631286Y97730571D01*
X64845571Y97802000D01*
X64988429Y97944857D01*
X65059857Y98087714D01*
X65131286Y98373429D01*
X65131286Y98587714D01*
X65059857Y98873429D01*
X64988429Y99016286D01*
X64845571Y99159143D01*
X64631286Y99230571D01*
X64488429Y99230571D01*
X64274143Y99159143D01*
X64202714Y99087714D01*
X64202714Y98587714D01*
X64488429Y98587714D01*
X63559857Y98230571D02*
X63559857Y99230571D01*
X63559857Y98373429D02*
X63488429Y98302000D01*
X63345571Y98230571D01*
X63131286Y98230571D01*
X62988429Y98302000D01*
X62917000Y98444857D01*
X62917000Y99230571D01*
X61559857Y99230571D02*
X61559857Y97730571D01*
X61559857Y99159143D02*
X61702714Y99230571D01*
X61988428Y99230571D01*
X62131286Y99159143D01*
X62202714Y99087714D01*
X62274143Y98944857D01*
X62274143Y98516286D01*
X62202714Y98373429D01*
X62131286Y98302000D01*
X61988428Y98230571D01*
X61702714Y98230571D01*
X61559857Y98302000D01*
D13*
X56134000Y57658000D02*
X59182000Y57658000D01*
X57658000Y59182000D02*
X57658000Y56134000D01*
X59182000Y2540000D02*
X59182000Y2667000D01*
D12*
X4085022Y57658000D02*
G75*
G03X4085022Y57658000I-1545022J0D01*
G01*
D11*
X49355238Y28312570D02*
X49355238Y28169713D01*
X49260000Y28026856D01*
X49164762Y27955427D01*
X48974286Y27883998D01*
X48593333Y27812570D01*
X48117143Y27812570D01*
X47736190Y27883998D01*
X47545714Y27955427D01*
X47450476Y28026856D01*
X47355238Y28169713D01*
X47355238Y28312570D01*
X47450476Y28455427D01*
X47545714Y28526856D01*
X47736190Y28598284D01*
X48117143Y28669713D01*
X48593333Y28669713D01*
X48974286Y28598284D01*
X49164762Y28526856D01*
X49260000Y28455427D01*
X49355238Y28312570D01*
X47355238Y25241142D02*
X47355238Y26098285D01*
X47355238Y25669713D02*
X49355238Y25669713D01*
X49069524Y25812570D01*
X48879048Y25955428D01*
X48783810Y26098285D01*
X49164762Y23526857D02*
X49260000Y23455428D01*
X49355238Y23312571D01*
X49355238Y22955428D01*
X49260000Y22812571D01*
X49164762Y22741142D01*
X48974286Y22669714D01*
X48783810Y22669714D01*
X48498095Y22741142D01*
X47355238Y23598285D01*
X47355238Y22669714D01*
X49355238Y21026857D02*
X49355238Y20098286D01*
X48593333Y20598286D01*
X48593333Y20384000D01*
X48498095Y20241143D01*
X48402857Y20169714D01*
X48212381Y20098286D01*
X47736190Y20098286D01*
X47545714Y20169714D01*
X47450476Y20241143D01*
X47355238Y20384000D01*
X47355238Y20812572D01*
X47450476Y20955429D01*
X47545714Y21026857D01*
X49228238Y82668570D02*
X49228238Y82525713D01*
X49133000Y82382856D01*
X49037762Y82311427D01*
X48847286Y82239998D01*
X48466333Y82168570D01*
X47990143Y82168570D01*
X47609190Y82239998D01*
X47418714Y82311427D01*
X47323476Y82382856D01*
X47228238Y82525713D01*
X47228238Y82668570D01*
X47323476Y82811427D01*
X47418714Y82882856D01*
X47609190Y82954284D01*
X47990143Y83025713D01*
X48466333Y83025713D01*
X48847286Y82954284D01*
X49037762Y82882856D01*
X49133000Y82811427D01*
X49228238Y82668570D01*
X47228238Y79597142D02*
X47228238Y80454285D01*
X47228238Y80025713D02*
X49228238Y80025713D01*
X48942524Y80168570D01*
X48752048Y80311428D01*
X48656810Y80454285D01*
X49037762Y77882857D02*
X49133000Y77811428D01*
X49228238Y77668571D01*
X49228238Y77311428D01*
X49133000Y77168571D01*
X49037762Y77097142D01*
X48847286Y77025714D01*
X48656810Y77025714D01*
X48371095Y77097142D01*
X47228238Y77954285D01*
X47228238Y77025714D01*
X49228238Y75382857D02*
X49228238Y74454286D01*
X48466333Y74954286D01*
X48466333Y74740000D01*
X48371095Y74597143D01*
X48275857Y74525714D01*
X48085381Y74454286D01*
X47609190Y74454286D01*
X47418714Y74525714D01*
X47323476Y74597143D01*
X47228238Y74740000D01*
X47228238Y75168572D01*
X47323476Y75311429D01*
X47418714Y75382857D01*
X83430570Y50720762D02*
X83287713Y50720762D01*
X83144856Y50816000D01*
X83073427Y50911238D01*
X83001998Y51101714D01*
X82930570Y51482667D01*
X82930570Y51958857D01*
X83001998Y52339810D01*
X83073427Y52530286D01*
X83144856Y52625524D01*
X83287713Y52720762D01*
X83430570Y52720762D01*
X83573427Y52625524D01*
X83644856Y52530286D01*
X83716284Y52339810D01*
X83787713Y51958857D01*
X83787713Y51482667D01*
X83716284Y51101714D01*
X83644856Y50911238D01*
X83573427Y50816000D01*
X83430570Y50720762D01*
X80359142Y52720762D02*
X81216285Y52720762D01*
X80787713Y52720762D02*
X80787713Y50720762D01*
X80930570Y51006476D01*
X81073428Y51196952D01*
X81216285Y51292190D01*
X78644857Y50911238D02*
X78573428Y50816000D01*
X78430571Y50720762D01*
X78073428Y50720762D01*
X77930571Y50816000D01*
X77859142Y50911238D01*
X77787714Y51101714D01*
X77787714Y51292190D01*
X77859142Y51577905D01*
X78716285Y52720762D01*
X77787714Y52720762D01*
X76144857Y50720762D02*
X75216286Y50720762D01*
X75716286Y51482667D01*
X75502000Y51482667D01*
X75359143Y51577905D01*
X75287714Y51673143D01*
X75216286Y51863619D01*
X75216286Y52339810D01*
X75287714Y52530286D01*
X75359143Y52625524D01*
X75502000Y52720762D01*
X75930572Y52720762D01*
X76073429Y52625524D01*
X76144857Y52530286D01*
X99456762Y24828858D02*
X97456762Y24828858D01*
X97456762Y25400286D01*
X97552000Y25543144D01*
X97647238Y25614572D01*
X97837714Y25686001D01*
X98123429Y25686001D01*
X98313905Y25614572D01*
X98409143Y25543144D01*
X98504381Y25400286D01*
X98504381Y24828858D01*
X99456762Y26328858D02*
X98123429Y26328858D01*
X98504381Y26328858D02*
X98313905Y26400286D01*
X98218667Y26471715D01*
X98123429Y26614572D01*
X98123429Y26757429D01*
X99456762Y27471715D02*
X99361524Y27328857D01*
X99266286Y27257429D01*
X99075810Y27186000D01*
X98504381Y27186000D01*
X98313905Y27257429D01*
X98218667Y27328857D01*
X98123429Y27471715D01*
X98123429Y27686000D01*
X98218667Y27828857D01*
X98313905Y27900286D01*
X98504381Y27971715D01*
X99075810Y27971715D01*
X99266286Y27900286D01*
X99361524Y27828857D01*
X99456762Y27686000D01*
X99456762Y27471715D01*
X99456762Y28614572D02*
X97456762Y28614572D01*
X98218667Y28614572D02*
X98123429Y28757429D01*
X98123429Y29043143D01*
X98218667Y29186000D01*
X98313905Y29257429D01*
X98504381Y29328858D01*
X99075810Y29328858D01*
X99266286Y29257429D01*
X99361524Y29186000D01*
X99456762Y29043143D01*
X99456762Y28757429D01*
X99361524Y28614572D01*
X99361524Y30543143D02*
X99456762Y30400286D01*
X99456762Y30114572D01*
X99361524Y29971715D01*
X99171048Y29900286D01*
X98409143Y29900286D01*
X98218667Y29971715D01*
X98123429Y30114572D01*
X98123429Y30400286D01*
X98218667Y30543143D01*
X98409143Y30614572D01*
X98599619Y30614572D01*
X98790095Y29900286D01*
X92852762Y24828858D02*
X90852762Y24828858D01*
X90852762Y25400286D01*
X90948000Y25543144D01*
X91043238Y25614572D01*
X91233714Y25686001D01*
X91519429Y25686001D01*
X91709905Y25614572D01*
X91805143Y25543144D01*
X91900381Y25400286D01*
X91900381Y24828858D01*
X92852762Y26328858D02*
X91519429Y26328858D01*
X91900381Y26328858D02*
X91709905Y26400286D01*
X91614667Y26471715D01*
X91519429Y26614572D01*
X91519429Y26757429D01*
X92852762Y27471715D02*
X92757524Y27328857D01*
X92662286Y27257429D01*
X92471810Y27186000D01*
X91900381Y27186000D01*
X91709905Y27257429D01*
X91614667Y27328857D01*
X91519429Y27471715D01*
X91519429Y27686000D01*
X91614667Y27828857D01*
X91709905Y27900286D01*
X91900381Y27971715D01*
X92471810Y27971715D01*
X92662286Y27900286D01*
X92757524Y27828857D01*
X92852762Y27686000D01*
X92852762Y27471715D01*
X92852762Y28614572D02*
X90852762Y28614572D01*
X91614667Y28614572D02*
X91519429Y28757429D01*
X91519429Y29043143D01*
X91614667Y29186000D01*
X91709905Y29257429D01*
X91900381Y29328858D01*
X92471810Y29328858D01*
X92662286Y29257429D01*
X92757524Y29186000D01*
X92852762Y29043143D01*
X92852762Y28757429D01*
X92757524Y28614572D01*
X92757524Y30543143D02*
X92852762Y30400286D01*
X92852762Y30114572D01*
X92757524Y29971715D01*
X92567048Y29900286D01*
X91805143Y29900286D01*
X91614667Y29971715D01*
X91519429Y30114572D01*
X91519429Y30400286D01*
X91614667Y30543143D01*
X91805143Y30614572D01*
X91995619Y30614572D01*
X92186095Y29900286D01*
X87170001Y1670857D02*
X88312858Y1670857D01*
X87741429Y1099429D02*
X87741429Y2242286D01*
X92741429Y2599429D02*
X92884286Y2599429D01*
X93027143Y2528000D01*
X93098572Y2456571D01*
X93170001Y2313714D01*
X93241429Y2028000D01*
X93241429Y1670857D01*
X93170001Y1385143D01*
X93098572Y1242286D01*
X93027143Y1170857D01*
X92884286Y1099429D01*
X92741429Y1099429D01*
X92598572Y1170857D01*
X92527143Y1242286D01*
X92455715Y1385143D01*
X92384286Y1670857D01*
X92384286Y2028000D01*
X92455715Y2313714D01*
X92527143Y2456571D01*
X92598572Y2528000D01*
X92741429Y2599429D01*
X96631238Y10370000D02*
X98631238Y10370000D01*
X98631238Y9798572D01*
X98536000Y9655714D01*
X98440762Y9584286D01*
X98250286Y9512857D01*
X97964571Y9512857D01*
X97774095Y9584286D01*
X97678857Y9655714D01*
X97583619Y9798572D01*
X97583619Y10370000D01*
X97964571Y8227143D02*
X96631238Y8227143D01*
X97964571Y8870000D02*
X96916952Y8870000D01*
X96726476Y8798572D01*
X96631238Y8655714D01*
X96631238Y8441429D01*
X96726476Y8298572D01*
X96821714Y8227143D01*
X96631238Y7512857D02*
X97964571Y7512857D01*
X97774095Y7512857D02*
X97869333Y7441429D01*
X97964571Y7298571D01*
X97964571Y7084286D01*
X97869333Y6941429D01*
X97678857Y6870000D01*
X96631238Y6870000D01*
X97678857Y6870000D02*
X97869333Y6798571D01*
X97964571Y6655714D01*
X97964571Y6441429D01*
X97869333Y6298571D01*
X97678857Y6227143D01*
X96631238Y6227143D01*
X97964571Y5512857D02*
X95964571Y5512857D01*
X97869333Y5512857D02*
X97964571Y5370000D01*
X97964571Y5084286D01*
X97869333Y4941429D01*
X97774095Y4870000D01*
X97583619Y4798571D01*
X97012190Y4798571D01*
X96821714Y4870000D01*
X96726476Y4941429D01*
X96631238Y5084286D01*
X96631238Y5370000D01*
X96726476Y5512857D01*
X60027715Y3159238D02*
X60027715Y5159238D01*
X60599143Y5159238D01*
X60742001Y5064000D01*
X60813429Y4968762D01*
X60884858Y4778286D01*
X60884858Y4492571D01*
X60813429Y4302095D01*
X60742001Y4206857D01*
X60599143Y4111619D01*
X60027715Y4111619D01*
X61742001Y3159238D02*
X61599143Y3254476D01*
X61527715Y3349714D01*
X61456286Y3540190D01*
X61456286Y4111619D01*
X61527715Y4302095D01*
X61599143Y4397333D01*
X61742001Y4492571D01*
X61956286Y4492571D01*
X62099143Y4397333D01*
X62170572Y4302095D01*
X62242001Y4111619D01*
X62242001Y3540190D01*
X62170572Y3349714D01*
X62099143Y3254476D01*
X61956286Y3159238D01*
X61742001Y3159238D01*
X62742001Y4492571D02*
X63027715Y3159238D01*
X63313429Y4111619D01*
X63599144Y3159238D01*
X63884858Y4492571D01*
X65027715Y3254476D02*
X64884858Y3159238D01*
X64599144Y3159238D01*
X64456287Y3254476D01*
X64384858Y3444952D01*
X64384858Y4206857D01*
X64456287Y4397333D01*
X64599144Y4492571D01*
X64884858Y4492571D01*
X65027715Y4397333D01*
X65099144Y4206857D01*
X65099144Y4016381D01*
X64384858Y3825905D01*
X65742001Y3159238D02*
X65742001Y4492571D01*
X65742001Y4111619D02*
X65813429Y4302095D01*
X65884858Y4397333D01*
X66027715Y4492571D01*
X66170572Y4492571D01*
D12*
X98806000Y42164000D02*
G75*
G03X98806000Y42164000I-1524000J0D01*
G01*
X59203022Y2540000D02*
G75*
G03X59203022Y2540000I-1545022J0D01*
G01*
X59182000Y42164000D02*
G75*
G03X59182000Y42164000I-1524000J0D01*
G01*
D11*
X80128570Y42338762D02*
X79985713Y42338762D01*
X79842856Y42434000D01*
X79771427Y42529238D01*
X79699998Y42719714D01*
X79628570Y43100667D01*
X79628570Y43576857D01*
X79699998Y43957810D01*
X79771427Y44148286D01*
X79842856Y44243524D01*
X79985713Y44338762D01*
X80128570Y44338762D01*
X80271427Y44243524D01*
X80342856Y44148286D01*
X80414284Y43957810D01*
X80485713Y43576857D01*
X80485713Y43100667D01*
X80414284Y42719714D01*
X80342856Y42529238D01*
X80271427Y42434000D01*
X80128570Y42338762D01*
X77057142Y44338762D02*
X77914285Y44338762D01*
X77485713Y44338762D02*
X77485713Y42338762D01*
X77628570Y42624476D01*
X77771428Y42814952D01*
X77914285Y42910190D01*
X75342857Y42529238D02*
X75271428Y42434000D01*
X75128571Y42338762D01*
X74771428Y42338762D01*
X74628571Y42434000D01*
X74557142Y42529238D01*
X74485714Y42719714D01*
X74485714Y42910190D01*
X74557142Y43195905D01*
X75414285Y44338762D01*
X74485714Y44338762D01*
X72842857Y42338762D02*
X71914286Y42338762D01*
X72414286Y43100667D01*
X72200000Y43100667D01*
X72057143Y43195905D01*
X71985714Y43291143D01*
X71914286Y43481619D01*
X71914286Y43957810D01*
X71985714Y44148286D01*
X72057143Y44243524D01*
X72200000Y44338762D01*
X72628572Y44338762D01*
X72771429Y44243524D01*
X72842857Y44148286D01*
X99456762Y79946858D02*
X97456762Y79946858D01*
X97456762Y80518286D01*
X97552000Y80661144D01*
X97647238Y80732572D01*
X97837714Y80804001D01*
X98123429Y80804001D01*
X98313905Y80732572D01*
X98409143Y80661144D01*
X98504381Y80518286D01*
X98504381Y79946858D01*
X99456762Y81446858D02*
X98123429Y81446858D01*
X98504381Y81446858D02*
X98313905Y81518286D01*
X98218667Y81589715D01*
X98123429Y81732572D01*
X98123429Y81875429D01*
X99456762Y82589715D02*
X99361524Y82446857D01*
X99266286Y82375429D01*
X99075810Y82304000D01*
X98504381Y82304000D01*
X98313905Y82375429D01*
X98218667Y82446857D01*
X98123429Y82589715D01*
X98123429Y82804000D01*
X98218667Y82946857D01*
X98313905Y83018286D01*
X98504381Y83089715D01*
X99075810Y83089715D01*
X99266286Y83018286D01*
X99361524Y82946857D01*
X99456762Y82804000D01*
X99456762Y82589715D01*
X99456762Y83732572D02*
X97456762Y83732572D01*
X98218667Y83732572D02*
X98123429Y83875429D01*
X98123429Y84161143D01*
X98218667Y84304000D01*
X98313905Y84375429D01*
X98504381Y84446858D01*
X99075810Y84446858D01*
X99266286Y84375429D01*
X99361524Y84304000D01*
X99456762Y84161143D01*
X99456762Y83875429D01*
X99361524Y83732572D01*
X99361524Y85661143D02*
X99456762Y85518286D01*
X99456762Y85232572D01*
X99361524Y85089715D01*
X99171048Y85018286D01*
X98409143Y85018286D01*
X98218667Y85089715D01*
X98123429Y85232572D01*
X98123429Y85518286D01*
X98218667Y85661143D01*
X98409143Y85732572D01*
X98599619Y85732572D01*
X98790095Y85018286D01*
X92852762Y79946858D02*
X90852762Y79946858D01*
X90852762Y80518286D01*
X90948000Y80661144D01*
X91043238Y80732572D01*
X91233714Y80804001D01*
X91519429Y80804001D01*
X91709905Y80732572D01*
X91805143Y80661144D01*
X91900381Y80518286D01*
X91900381Y79946858D01*
X92852762Y81446858D02*
X91519429Y81446858D01*
X91900381Y81446858D02*
X91709905Y81518286D01*
X91614667Y81589715D01*
X91519429Y81732572D01*
X91519429Y81875429D01*
X92852762Y82589715D02*
X92757524Y82446857D01*
X92662286Y82375429D01*
X92471810Y82304000D01*
X91900381Y82304000D01*
X91709905Y82375429D01*
X91614667Y82446857D01*
X91519429Y82589715D01*
X91519429Y82804000D01*
X91614667Y82946857D01*
X91709905Y83018286D01*
X91900381Y83089715D01*
X92471810Y83089715D01*
X92662286Y83018286D01*
X92757524Y82946857D01*
X92852762Y82804000D01*
X92852762Y82589715D01*
X92852762Y83732572D02*
X90852762Y83732572D01*
X91614667Y83732572D02*
X91519429Y83875429D01*
X91519429Y84161143D01*
X91614667Y84304000D01*
X91709905Y84375429D01*
X91900381Y84446858D01*
X92471810Y84446858D01*
X92662286Y84375429D01*
X92757524Y84304000D01*
X92852762Y84161143D01*
X92852762Y83875429D01*
X92757524Y83732572D01*
X92757524Y85661143D02*
X92852762Y85518286D01*
X92852762Y85232572D01*
X92757524Y85089715D01*
X92567048Y85018286D01*
X91805143Y85018286D01*
X91614667Y85089715D01*
X91519429Y85232572D01*
X91519429Y85518286D01*
X91614667Y85661143D01*
X91805143Y85732572D01*
X91995619Y85732572D01*
X92186095Y85018286D01*
X87170001Y56788857D02*
X88312858Y56788857D01*
X87741429Y56217429D02*
X87741429Y57360286D01*
X92741429Y57717429D02*
X92884286Y57717429D01*
X93027143Y57646000D01*
X93098572Y57574571D01*
X93170001Y57431714D01*
X93241429Y57146000D01*
X93241429Y56788857D01*
X93170001Y56503143D01*
X93098572Y56360286D01*
X93027143Y56288857D01*
X92884286Y56217429D01*
X92741429Y56217429D01*
X92598572Y56288857D01*
X92527143Y56360286D01*
X92455715Y56503143D01*
X92384286Y56788857D01*
X92384286Y57146000D01*
X92455715Y57431714D01*
X92527143Y57574571D01*
X92598572Y57646000D01*
X92741429Y57717429D01*
X96631238Y65488000D02*
X98631238Y65488000D01*
X98631238Y64916572D01*
X98536000Y64773714D01*
X98440762Y64702286D01*
X98250286Y64630857D01*
X97964571Y64630857D01*
X97774095Y64702286D01*
X97678857Y64773714D01*
X97583619Y64916572D01*
X97583619Y65488000D01*
X97964571Y63345143D02*
X96631238Y63345143D01*
X97964571Y63988000D02*
X96916952Y63988000D01*
X96726476Y63916572D01*
X96631238Y63773714D01*
X96631238Y63559429D01*
X96726476Y63416572D01*
X96821714Y63345143D01*
X96631238Y62630857D02*
X97964571Y62630857D01*
X97774095Y62630857D02*
X97869333Y62559429D01*
X97964571Y62416571D01*
X97964571Y62202286D01*
X97869333Y62059429D01*
X97678857Y61988000D01*
X96631238Y61988000D01*
X97678857Y61988000D02*
X97869333Y61916571D01*
X97964571Y61773714D01*
X97964571Y61559429D01*
X97869333Y61416571D01*
X97678857Y61345143D01*
X96631238Y61345143D01*
X97964571Y60630857D02*
X95964571Y60630857D01*
X97869333Y60630857D02*
X97964571Y60488000D01*
X97964571Y60202286D01*
X97869333Y60059429D01*
X97774095Y59988000D01*
X97583619Y59916571D01*
X97012190Y59916571D01*
X96821714Y59988000D01*
X96726476Y60059429D01*
X96631238Y60202286D01*
X96631238Y60488000D01*
X96726476Y60630857D01*
X60027715Y58277238D02*
X60027715Y60277238D01*
X60599143Y60277238D01*
X60742001Y60182000D01*
X60813429Y60086762D01*
X60884858Y59896286D01*
X60884858Y59610571D01*
X60813429Y59420095D01*
X60742001Y59324857D01*
X60599143Y59229619D01*
X60027715Y59229619D01*
X61742001Y58277238D02*
X61599143Y58372476D01*
X61527715Y58467714D01*
X61456286Y58658190D01*
X61456286Y59229619D01*
X61527715Y59420095D01*
X61599143Y59515333D01*
X61742001Y59610571D01*
X61956286Y59610571D01*
X62099143Y59515333D01*
X62170572Y59420095D01*
X62242001Y59229619D01*
X62242001Y58658190D01*
X62170572Y58467714D01*
X62099143Y58372476D01*
X61956286Y58277238D01*
X61742001Y58277238D01*
X62742001Y59610571D02*
X63027715Y58277238D01*
X63313429Y59229619D01*
X63599144Y58277238D01*
X63884858Y59610571D01*
X65027715Y58372476D02*
X64884858Y58277238D01*
X64599144Y58277238D01*
X64456287Y58372476D01*
X64384858Y58562952D01*
X64384858Y59324857D01*
X64456287Y59515333D01*
X64599144Y59610571D01*
X64884858Y59610571D01*
X65027715Y59515333D01*
X65099144Y59324857D01*
X65099144Y59134381D01*
X64384858Y58943905D01*
X65742001Y58277238D02*
X65742001Y59610571D01*
X65742001Y59229619D02*
X65813429Y59420095D01*
X65884858Y59515333D01*
X66027715Y59610571D01*
X66170572Y59610571D01*
D12*
X98806000Y97282000D02*
G75*
G03X98806000Y97282000I-1524000J0D01*
G01*
X59203022Y57658000D02*
G75*
G03X59203022Y57658000I-1545022J0D01*
G01*
X59182000Y97282000D02*
G75*
G03X59182000Y97282000I-1524000J0D01*
G01*
D11*
X25010570Y97456762D02*
X24867713Y97456762D01*
X24724856Y97552000D01*
X24653427Y97647238D01*
X24581998Y97837714D01*
X24510570Y98218667D01*
X24510570Y98694857D01*
X24581998Y99075810D01*
X24653427Y99266286D01*
X24724856Y99361524D01*
X24867713Y99456762D01*
X25010570Y99456762D01*
X25153427Y99361524D01*
X25224856Y99266286D01*
X25296284Y99075810D01*
X25367713Y98694857D01*
X25367713Y98218667D01*
X25296284Y97837714D01*
X25224856Y97647238D01*
X25153427Y97552000D01*
X25010570Y97456762D01*
X21939142Y99456762D02*
X22796285Y99456762D01*
X22367713Y99456762D02*
X22367713Y97456762D01*
X22510570Y97742476D01*
X22653428Y97932952D01*
X22796285Y98028190D01*
X20224857Y97647238D02*
X20153428Y97552000D01*
X20010571Y97456762D01*
X19653428Y97456762D01*
X19510571Y97552000D01*
X19439142Y97647238D01*
X19367714Y97837714D01*
X19367714Y98028190D01*
X19439142Y98313905D01*
X20296285Y99456762D01*
X19367714Y99456762D01*
X17724857Y97456762D02*
X16796286Y97456762D01*
X17296286Y98218667D01*
X17082000Y98218667D01*
X16939143Y98313905D01*
X16867714Y98409143D01*
X16796286Y98599619D01*
X16796286Y99075810D01*
X16867714Y99266286D01*
X16939143Y99361524D01*
X17082000Y99456762D01*
X17510572Y99456762D01*
X17653429Y99361524D01*
X17724857Y99266286D01*
X25010570Y42338762D02*
X24867713Y42338762D01*
X24724856Y42434000D01*
X24653427Y42529238D01*
X24581998Y42719714D01*
X24510570Y43100667D01*
X24510570Y43576857D01*
X24581998Y43957810D01*
X24653427Y44148286D01*
X24724856Y44243524D01*
X24867713Y44338762D01*
X25010570Y44338762D01*
X25153427Y44243524D01*
X25224856Y44148286D01*
X25296284Y43957810D01*
X25367713Y43576857D01*
X25367713Y43100667D01*
X25296284Y42719714D01*
X25224856Y42529238D01*
X25153427Y42434000D01*
X25010570Y42338762D01*
X21939142Y44338762D02*
X22796285Y44338762D01*
X22367713Y44338762D02*
X22367713Y42338762D01*
X22510570Y42624476D01*
X22653428Y42814952D01*
X22796285Y42910190D01*
X20224857Y42529238D02*
X20153428Y42434000D01*
X20010571Y42338762D01*
X19653428Y42338762D01*
X19510571Y42434000D01*
X19439142Y42529238D01*
X19367714Y42719714D01*
X19367714Y42910190D01*
X19439142Y43195905D01*
X20296285Y44338762D01*
X19367714Y44338762D01*
X17724857Y42338762D02*
X16796286Y42338762D01*
X17296286Y43100667D01*
X17082000Y43100667D01*
X16939143Y43195905D01*
X16867714Y43291143D01*
X16796286Y43481619D01*
X16796286Y43957810D01*
X16867714Y44148286D01*
X16939143Y44243524D01*
X17082000Y44338762D01*
X17510572Y44338762D01*
X17653429Y44243524D01*
X17724857Y44148286D01*
X28439570Y50720762D02*
X28296713Y50720762D01*
X28153856Y50816000D01*
X28082427Y50911238D01*
X28010998Y51101714D01*
X27939570Y51482667D01*
X27939570Y51958857D01*
X28010998Y52339810D01*
X28082427Y52530286D01*
X28153856Y52625524D01*
X28296713Y52720762D01*
X28439570Y52720762D01*
X28582427Y52625524D01*
X28653856Y52530286D01*
X28725284Y52339810D01*
X28796713Y51958857D01*
X28796713Y51482667D01*
X28725284Y51101714D01*
X28653856Y50911238D01*
X28582427Y50816000D01*
X28439570Y50720762D01*
X25368142Y52720762D02*
X26225285Y52720762D01*
X25796713Y52720762D02*
X25796713Y50720762D01*
X25939570Y51006476D01*
X26082428Y51196952D01*
X26225285Y51292190D01*
X23653857Y50911238D02*
X23582428Y50816000D01*
X23439571Y50720762D01*
X23082428Y50720762D01*
X22939571Y50816000D01*
X22868142Y50911238D01*
X22796714Y51101714D01*
X22796714Y51292190D01*
X22868142Y51577905D01*
X23725285Y52720762D01*
X22796714Y52720762D01*
X21153857Y50720762D02*
X20225286Y50720762D01*
X20725286Y51482667D01*
X20511000Y51482667D01*
X20368143Y51577905D01*
X20296714Y51673143D01*
X20225286Y51863619D01*
X20225286Y52339810D01*
X20296714Y52530286D01*
X20368143Y52625524D01*
X20511000Y52720762D01*
X20939572Y52720762D01*
X21082429Y52625524D01*
X21153857Y52530286D01*
D12*
X4064000Y97282000D02*
G75*
G03X4064000Y97282000I-1524000J0D01*
G01*
X43688000Y97282000D02*
G75*
G03X43688000Y97282000I-1524000J0D01*
G01*
D11*
X4909715Y58277238D02*
X4909715Y60277238D01*
X5481143Y60277238D01*
X5624001Y60182000D01*
X5695429Y60086762D01*
X5766858Y59896286D01*
X5766858Y59610571D01*
X5695429Y59420095D01*
X5624001Y59324857D01*
X5481143Y59229619D01*
X4909715Y59229619D01*
X6624001Y58277238D02*
X6481143Y58372476D01*
X6409715Y58467714D01*
X6338286Y58658190D01*
X6338286Y59229619D01*
X6409715Y59420095D01*
X6481143Y59515333D01*
X6624001Y59610571D01*
X6838286Y59610571D01*
X6981143Y59515333D01*
X7052572Y59420095D01*
X7124001Y59229619D01*
X7124001Y58658190D01*
X7052572Y58467714D01*
X6981143Y58372476D01*
X6838286Y58277238D01*
X6624001Y58277238D01*
X7624001Y59610571D02*
X7909715Y58277238D01*
X8195429Y59229619D01*
X8481144Y58277238D01*
X8766858Y59610571D01*
X9909715Y58372476D02*
X9766858Y58277238D01*
X9481144Y58277238D01*
X9338287Y58372476D01*
X9266858Y58562952D01*
X9266858Y59324857D01*
X9338287Y59515333D01*
X9481144Y59610571D01*
X9766858Y59610571D01*
X9909715Y59515333D01*
X9981144Y59324857D01*
X9981144Y59134381D01*
X9266858Y58943905D01*
X10624001Y58277238D02*
X10624001Y59610571D01*
X10624001Y59229619D02*
X10695429Y59420095D01*
X10766858Y59515333D01*
X10909715Y59610571D01*
X11052572Y59610571D01*
X1924857Y70079714D02*
X1924857Y68936857D01*
X1353429Y69508286D02*
X2496286Y69508286D01*
X1924857Y63651143D02*
X1924857Y62508286D01*
X41513238Y65488000D02*
X43513238Y65488000D01*
X43513238Y64916572D01*
X43418000Y64773714D01*
X43322762Y64702286D01*
X43132286Y64630857D01*
X42846571Y64630857D01*
X42656095Y64702286D01*
X42560857Y64773714D01*
X42465619Y64916572D01*
X42465619Y65488000D01*
X42846571Y63345143D02*
X41513238Y63345143D01*
X42846571Y63988000D02*
X41798952Y63988000D01*
X41608476Y63916572D01*
X41513238Y63773714D01*
X41513238Y63559429D01*
X41608476Y63416572D01*
X41703714Y63345143D01*
X41513238Y62630857D02*
X42846571Y62630857D01*
X42656095Y62630857D02*
X42751333Y62559429D01*
X42846571Y62416571D01*
X42846571Y62202286D01*
X42751333Y62059429D01*
X42560857Y61988000D01*
X41513238Y61988000D01*
X42560857Y61988000D02*
X42751333Y61916571D01*
X42846571Y61773714D01*
X42846571Y61559429D01*
X42751333Y61416571D01*
X42560857Y61345143D01*
X41513238Y61345143D01*
X42846571Y60630857D02*
X40846571Y60630857D01*
X42751333Y60630857D02*
X42846571Y60488000D01*
X42846571Y60202286D01*
X42751333Y60059429D01*
X42656095Y59988000D01*
X42465619Y59916571D01*
X41894190Y59916571D01*
X41703714Y59988000D01*
X41608476Y60059429D01*
X41513238Y60202286D01*
X41513238Y60488000D01*
X41608476Y60630857D01*
X31266286Y56788857D02*
X32409143Y56788857D01*
X31837714Y56217429D02*
X31837714Y57360286D01*
X37694857Y56788857D02*
X38837714Y56788857D01*
X37734762Y79946858D02*
X35734762Y79946858D01*
X35734762Y80518286D01*
X35830000Y80661144D01*
X35925238Y80732572D01*
X36115714Y80804001D01*
X36401429Y80804001D01*
X36591905Y80732572D01*
X36687143Y80661144D01*
X36782381Y80518286D01*
X36782381Y79946858D01*
X37734762Y81446858D02*
X36401429Y81446858D01*
X36782381Y81446858D02*
X36591905Y81518286D01*
X36496667Y81589715D01*
X36401429Y81732572D01*
X36401429Y81875429D01*
X37734762Y82589715D02*
X37639524Y82446857D01*
X37544286Y82375429D01*
X37353810Y82304000D01*
X36782381Y82304000D01*
X36591905Y82375429D01*
X36496667Y82446857D01*
X36401429Y82589715D01*
X36401429Y82804000D01*
X36496667Y82946857D01*
X36591905Y83018286D01*
X36782381Y83089715D01*
X37353810Y83089715D01*
X37544286Y83018286D01*
X37639524Y82946857D01*
X37734762Y82804000D01*
X37734762Y82589715D01*
X37734762Y83732572D02*
X35734762Y83732572D01*
X36496667Y83732572D02*
X36401429Y83875429D01*
X36401429Y84161143D01*
X36496667Y84304000D01*
X36591905Y84375429D01*
X36782381Y84446858D01*
X37353810Y84446858D01*
X37544286Y84375429D01*
X37639524Y84304000D01*
X37734762Y84161143D01*
X37734762Y83875429D01*
X37639524Y83732572D01*
X37639524Y85661143D02*
X37734762Y85518286D01*
X37734762Y85232572D01*
X37639524Y85089715D01*
X37449048Y85018286D01*
X36687143Y85018286D01*
X36496667Y85089715D01*
X36401429Y85232572D01*
X36401429Y85518286D01*
X36496667Y85661143D01*
X36687143Y85732572D01*
X36877619Y85732572D01*
X37068095Y85018286D01*
X44338762Y79946858D02*
X42338762Y79946858D01*
X42338762Y80518286D01*
X42434000Y80661144D01*
X42529238Y80732572D01*
X42719714Y80804001D01*
X43005429Y80804001D01*
X43195905Y80732572D01*
X43291143Y80661144D01*
X43386381Y80518286D01*
X43386381Y79946858D01*
X44338762Y81446858D02*
X43005429Y81446858D01*
X43386381Y81446858D02*
X43195905Y81518286D01*
X43100667Y81589715D01*
X43005429Y81732572D01*
X43005429Y81875429D01*
X44338762Y82589715D02*
X44243524Y82446857D01*
X44148286Y82375429D01*
X43957810Y82304000D01*
X43386381Y82304000D01*
X43195905Y82375429D01*
X43100667Y82446857D01*
X43005429Y82589715D01*
X43005429Y82804000D01*
X43100667Y82946857D01*
X43195905Y83018286D01*
X43386381Y83089715D01*
X43957810Y83089715D01*
X44148286Y83018286D01*
X44243524Y82946857D01*
X44338762Y82804000D01*
X44338762Y82589715D01*
X44338762Y83732572D02*
X42338762Y83732572D01*
X43100667Y83732572D02*
X43005429Y83875429D01*
X43005429Y84161143D01*
X43100667Y84304000D01*
X43195905Y84375429D01*
X43386381Y84446858D01*
X43957810Y84446858D01*
X44148286Y84375429D01*
X44243524Y84304000D01*
X44338762Y84161143D01*
X44338762Y83875429D01*
X44243524Y83732572D01*
X44243524Y85661143D02*
X44338762Y85518286D01*
X44338762Y85232572D01*
X44243524Y85089715D01*
X44053048Y85018286D01*
X43291143Y85018286D01*
X43100667Y85089715D01*
X43005429Y85232572D01*
X43005429Y85518286D01*
X43100667Y85661143D01*
X43291143Y85732572D01*
X43481619Y85732572D01*
X43672095Y85018286D01*
X15783142Y98659143D02*
X14640285Y98659143D01*
X15211714Y99230571D02*
X15211714Y98087714D01*
X13211713Y97730571D02*
X13925999Y97730571D01*
X13997428Y98444857D01*
X13925999Y98373429D01*
X13783142Y98302000D01*
X13425999Y98302000D01*
X13283142Y98373429D01*
X13211713Y98444857D01*
X13140285Y98587714D01*
X13140285Y98944857D01*
X13211713Y99087714D01*
X13283142Y99159143D01*
X13425999Y99230571D01*
X13783142Y99230571D01*
X13925999Y99159143D01*
X13997428Y99087714D01*
X12711714Y97730571D02*
X12211714Y99230571D01*
X11711714Y97730571D01*
X9283143Y97802000D02*
X9426000Y97730571D01*
X9640286Y97730571D01*
X9854571Y97802000D01*
X9997429Y97944857D01*
X10068857Y98087714D01*
X10140286Y98373429D01*
X10140286Y98587714D01*
X10068857Y98873429D01*
X9997429Y99016286D01*
X9854571Y99159143D01*
X9640286Y99230571D01*
X9497429Y99230571D01*
X9283143Y99159143D01*
X9211714Y99087714D01*
X9211714Y98587714D01*
X9497429Y98587714D01*
X8568857Y98230571D02*
X8568857Y99230571D01*
X8568857Y98373429D02*
X8497429Y98302000D01*
X8354571Y98230571D01*
X8140286Y98230571D01*
X7997429Y98302000D01*
X7926000Y98444857D01*
X7926000Y99230571D01*
X6568857Y99230571D02*
X6568857Y97730571D01*
X6568857Y99159143D02*
X6711714Y99230571D01*
X6997428Y99230571D01*
X7140286Y99159143D01*
X7211714Y99087714D01*
X7283143Y98944857D01*
X7283143Y98516286D01*
X7211714Y98373429D01*
X7140286Y98302000D01*
X6997428Y98230571D01*
X6711714Y98230571D01*
X6568857Y98302000D01*
X44338762Y24828858D02*
X42338762Y24828858D01*
X42338762Y25400286D01*
X42434000Y25543144D01*
X42529238Y25614572D01*
X42719714Y25686001D01*
X43005429Y25686001D01*
X43195905Y25614572D01*
X43291143Y25543144D01*
X43386381Y25400286D01*
X43386381Y24828858D01*
X44338762Y26328858D02*
X43005429Y26328858D01*
X43386381Y26328858D02*
X43195905Y26400286D01*
X43100667Y26471715D01*
X43005429Y26614572D01*
X43005429Y26757429D01*
X44338762Y27471715D02*
X44243524Y27328857D01*
X44148286Y27257429D01*
X43957810Y27186000D01*
X43386381Y27186000D01*
X43195905Y27257429D01*
X43100667Y27328857D01*
X43005429Y27471715D01*
X43005429Y27686000D01*
X43100667Y27828857D01*
X43195905Y27900286D01*
X43386381Y27971715D01*
X43957810Y27971715D01*
X44148286Y27900286D01*
X44243524Y27828857D01*
X44338762Y27686000D01*
X44338762Y27471715D01*
X44338762Y28614572D02*
X42338762Y28614572D01*
X43100667Y28614572D02*
X43005429Y28757429D01*
X43005429Y29043143D01*
X43100667Y29186000D01*
X43195905Y29257429D01*
X43386381Y29328858D01*
X43957810Y29328858D01*
X44148286Y29257429D01*
X44243524Y29186000D01*
X44338762Y29043143D01*
X44338762Y28757429D01*
X44243524Y28614572D01*
X44243524Y30543143D02*
X44338762Y30400286D01*
X44338762Y30114572D01*
X44243524Y29971715D01*
X44053048Y29900286D01*
X43291143Y29900286D01*
X43100667Y29971715D01*
X43005429Y30114572D01*
X43005429Y30400286D01*
X43100667Y30543143D01*
X43291143Y30614572D01*
X43481619Y30614572D01*
X43672095Y29900286D01*
X37734762Y24828858D02*
X35734762Y24828858D01*
X35734762Y25400286D01*
X35830000Y25543144D01*
X35925238Y25614572D01*
X36115714Y25686001D01*
X36401429Y25686001D01*
X36591905Y25614572D01*
X36687143Y25543144D01*
X36782381Y25400286D01*
X36782381Y24828858D01*
X37734762Y26328858D02*
X36401429Y26328858D01*
X36782381Y26328858D02*
X36591905Y26400286D01*
X36496667Y26471715D01*
X36401429Y26614572D01*
X36401429Y26757429D01*
X37734762Y27471715D02*
X37639524Y27328857D01*
X37544286Y27257429D01*
X37353810Y27186000D01*
X36782381Y27186000D01*
X36591905Y27257429D01*
X36496667Y27328857D01*
X36401429Y27471715D01*
X36401429Y27686000D01*
X36496667Y27828857D01*
X36591905Y27900286D01*
X36782381Y27971715D01*
X37353810Y27971715D01*
X37544286Y27900286D01*
X37639524Y27828857D01*
X37734762Y27686000D01*
X37734762Y27471715D01*
X37734762Y28614572D02*
X35734762Y28614572D01*
X36496667Y28614572D02*
X36401429Y28757429D01*
X36401429Y29043143D01*
X36496667Y29186000D01*
X36591905Y29257429D01*
X36782381Y29328858D01*
X37353810Y29328858D01*
X37544286Y29257429D01*
X37639524Y29186000D01*
X37734762Y29043143D01*
X37734762Y28757429D01*
X37639524Y28614572D01*
X37639524Y30543143D02*
X37734762Y30400286D01*
X37734762Y30114572D01*
X37639524Y29971715D01*
X37449048Y29900286D01*
X36687143Y29900286D01*
X36496667Y29971715D01*
X36401429Y30114572D01*
X36401429Y30400286D01*
X36496667Y30543143D01*
X36687143Y30614572D01*
X36877619Y30614572D01*
X37068095Y29900286D01*
X32052001Y1670857D02*
X33194858Y1670857D01*
X32623429Y1099429D02*
X32623429Y2242286D01*
X37623429Y2599429D02*
X37766286Y2599429D01*
X37909143Y2528000D01*
X37980572Y2456571D01*
X38052001Y2313714D01*
X38123429Y2028000D01*
X38123429Y1670857D01*
X38052001Y1385143D01*
X37980572Y1242286D01*
X37909143Y1170857D01*
X37766286Y1099429D01*
X37623429Y1099429D01*
X37480572Y1170857D01*
X37409143Y1242286D01*
X37337715Y1385143D01*
X37266286Y1670857D01*
X37266286Y2028000D01*
X37337715Y2313714D01*
X37409143Y2456571D01*
X37480572Y2528000D01*
X37623429Y2599429D01*
X41513238Y10370000D02*
X43513238Y10370000D01*
X43513238Y9798572D01*
X43418000Y9655714D01*
X43322762Y9584286D01*
X43132286Y9512857D01*
X42846571Y9512857D01*
X42656095Y9584286D01*
X42560857Y9655714D01*
X42465619Y9798572D01*
X42465619Y10370000D01*
X42846571Y8227143D02*
X41513238Y8227143D01*
X42846571Y8870000D02*
X41798952Y8870000D01*
X41608476Y8798572D01*
X41513238Y8655714D01*
X41513238Y8441429D01*
X41608476Y8298572D01*
X41703714Y8227143D01*
X41513238Y7512857D02*
X42846571Y7512857D01*
X42656095Y7512857D02*
X42751333Y7441429D01*
X42846571Y7298571D01*
X42846571Y7084286D01*
X42751333Y6941429D01*
X42560857Y6870000D01*
X41513238Y6870000D01*
X42560857Y6870000D02*
X42751333Y6798571D01*
X42846571Y6655714D01*
X42846571Y6441429D01*
X42751333Y6298571D01*
X42560857Y6227143D01*
X41513238Y6227143D01*
X42846571Y5512857D02*
X40846571Y5512857D01*
X42751333Y5512857D02*
X42846571Y5370000D01*
X42846571Y5084286D01*
X42751333Y4941429D01*
X42656095Y4870000D01*
X42465619Y4798571D01*
X41894190Y4798571D01*
X41703714Y4870000D01*
X41608476Y4941429D01*
X41513238Y5084286D01*
X41513238Y5370000D01*
X41608476Y5512857D01*
X1924857Y14175999D02*
X1924857Y13033142D01*
X1353429Y13604571D02*
X2496286Y13604571D01*
X2853429Y8604571D02*
X2853429Y8461714D01*
X2782000Y8318857D01*
X2710571Y8247428D01*
X2567714Y8175999D01*
X2282000Y8104571D01*
X1924857Y8104571D01*
X1639143Y8175999D01*
X1496286Y8247428D01*
X1424857Y8318857D01*
X1353429Y8461714D01*
X1353429Y8604571D01*
X1424857Y8747428D01*
X1496286Y8818857D01*
X1639143Y8890285D01*
X1924857Y8961714D01*
X2282000Y8961714D01*
X2567714Y8890285D01*
X2710571Y8818857D01*
X2782000Y8747428D01*
X2853429Y8604571D01*
X4909715Y3159238D02*
X4909715Y5159238D01*
X5481143Y5159238D01*
X5624001Y5064000D01*
X5695429Y4968762D01*
X5766858Y4778286D01*
X5766858Y4492571D01*
X5695429Y4302095D01*
X5624001Y4206857D01*
X5481143Y4111619D01*
X4909715Y4111619D01*
X6624001Y3159238D02*
X6481143Y3254476D01*
X6409715Y3349714D01*
X6338286Y3540190D01*
X6338286Y4111619D01*
X6409715Y4302095D01*
X6481143Y4397333D01*
X6624001Y4492571D01*
X6838286Y4492571D01*
X6981143Y4397333D01*
X7052572Y4302095D01*
X7124001Y4111619D01*
X7124001Y3540190D01*
X7052572Y3349714D01*
X6981143Y3254476D01*
X6838286Y3159238D01*
X6624001Y3159238D01*
X7624001Y4492571D02*
X7909715Y3159238D01*
X8195429Y4111619D01*
X8481144Y3159238D01*
X8766858Y4492571D01*
X9909715Y3254476D02*
X9766858Y3159238D01*
X9481144Y3159238D01*
X9338287Y3254476D01*
X9266858Y3444952D01*
X9266858Y4206857D01*
X9338287Y4397333D01*
X9481144Y4492571D01*
X9766858Y4492571D01*
X9909715Y4397333D01*
X9981144Y4206857D01*
X9981144Y4016381D01*
X9266858Y3825905D01*
X10624001Y3159238D02*
X10624001Y4492571D01*
X10624001Y4111619D02*
X10695429Y4302095D01*
X10766858Y4397333D01*
X10909715Y4492571D01*
X11052572Y4492571D01*
D12*
X43688000Y42164000D02*
G75*
G03X43688000Y42164000I-1524000J0D01*
G01*
X4085022Y2540000D02*
G75*
G03X4085022Y2540000I-1545022J0D01*
G01*
X4064000Y42164000D02*
G75*
G03X4064000Y42164000I-1524000J0D01*
G01*
D14*
X64325500Y69469000D02*
X62547500Y67691000D01*
X61976000Y68199000D02*
X63754000Y70040500D01*
X61976000Y63119000D02*
X63754000Y64960500D01*
X64325500Y64389000D02*
X62547500Y62611000D01*
X64643000Y66992500D02*
X66357500Y66992500D01*
X64135000Y67627500D02*
G75*
G02X64643000Y66992500I-63500J-571500D01*
G01*
X64071500Y62611000D02*
G75*
G02X64579500Y61976000I-63500J-571500D01*
G01*
X64579500Y61976000D02*
X66294000Y61976000D01*
X64135000Y64897000D02*
G75*
G03X64643000Y65532000I-63500J571500D01*
G01*
X64643000Y65532000D02*
X66357500Y65532000D01*
X64643000Y70675500D02*
X66357500Y70675500D01*
X64135000Y70040500D02*
G75*
G03X64643000Y70675500I-63500J571500D01*
G01*
X64643000Y66675000D02*
X64643000Y65913000D01*
X64643000Y65913000D02*
X61595000Y65913000D01*
X61595000Y65913000D02*
X61595000Y66675000D01*
X61595000Y66675000D02*
X64643000Y66675000D01*
X64643000Y63754000D02*
G75*
G03X64643000Y63754000I-1524000J0D01*
G01*
D13*
X64452500Y63754000D02*
G75*
G03X64452500Y63754000I-1333500J0D01*
G01*
D14*
X64654860Y68834000D02*
G75*
G03X64654860Y68834000I-1535860J0D01*
G01*
D13*
X64452500Y68834000D02*
G75*
G03X64452500Y68834000I-1333500J0D01*
G01*
X66357500Y71310500D02*
X66357500Y61214000D01*
X67691000Y61214000D02*
X59880500Y61214000D01*
X59880500Y71374000D02*
X67691000Y71374000D01*
X59880500Y71374000D02*
X59880500Y61214000D01*
X67691000Y61214000D02*
X67691000Y71374000D01*
D14*
X64325500Y14351000D02*
X62547500Y12573000D01*
X61976000Y13081000D02*
X63754000Y14922500D01*
X61976000Y8001000D02*
X63754000Y9842500D01*
X64325500Y9271000D02*
X62547500Y7493000D01*
X64643000Y11874500D02*
X66357500Y11874500D01*
X64135000Y12509500D02*
G75*
G02X64643000Y11874500I-63500J-571500D01*
G01*
X64071500Y7493000D02*
G75*
G02X64579500Y6858000I-63500J-571500D01*
G01*
X64579500Y6858000D02*
X66294000Y6858000D01*
X64135000Y9779000D02*
G75*
G03X64643000Y10414000I-63500J571500D01*
G01*
X64643000Y10414000D02*
X66357500Y10414000D01*
X64643000Y15557500D02*
X66357500Y15557500D01*
X64135000Y14922500D02*
G75*
G03X64643000Y15557500I-63500J571500D01*
G01*
X64643000Y11557000D02*
X64643000Y10795000D01*
X64643000Y10795000D02*
X61595000Y10795000D01*
X61595000Y10795000D02*
X61595000Y11557000D01*
X61595000Y11557000D02*
X64643000Y11557000D01*
X64643000Y8636000D02*
G75*
G03X64643000Y8636000I-1524000J0D01*
G01*
D13*
X64452500Y8636000D02*
G75*
G03X64452500Y8636000I-1333500J0D01*
G01*
D14*
X64654860Y13716000D02*
G75*
G03X64654860Y13716000I-1535860J0D01*
G01*
D13*
X64452500Y13716000D02*
G75*
G03X64452500Y13716000I-1333500J0D01*
G01*
X66357500Y16192500D02*
X66357500Y6096000D01*
X67691000Y6096000D02*
X59880500Y6096000D01*
X59880500Y16256000D02*
X67691000Y16256000D01*
X59880500Y16256000D02*
X59880500Y6096000D01*
X67691000Y6096000D02*
X67691000Y16256000D01*
D14*
X9207500Y14351000D02*
X7429500Y12573000D01*
X6858000Y13081000D02*
X8636000Y14922500D01*
X6858000Y8001000D02*
X8636000Y9842500D01*
X9207500Y9271000D02*
X7429500Y7493000D01*
X9525000Y11874500D02*
X11239500Y11874500D01*
X9017000Y12509500D02*
G75*
G02X9525000Y11874500I-63500J-571500D01*
G01*
X8953500Y7493000D02*
G75*
G02X9461500Y6858000I-63500J-571500D01*
G01*
X9461500Y6858000D02*
X11176000Y6858000D01*
X9017000Y9779000D02*
G75*
G03X9525000Y10414000I-63500J571500D01*
G01*
X9525000Y10414000D02*
X11239500Y10414000D01*
X9525000Y15557500D02*
X11239500Y15557500D01*
X9017000Y14922500D02*
G75*
G03X9525000Y15557500I-63500J571500D01*
G01*
X9525000Y11557000D02*
X9525000Y10795000D01*
X9525000Y10795000D02*
X6477000Y10795000D01*
X6477000Y10795000D02*
X6477000Y11557000D01*
X6477000Y11557000D02*
X9525000Y11557000D01*
X9525000Y8636000D02*
G75*
G03X9525000Y8636000I-1524000J0D01*
G01*
D13*
X9334500Y8636000D02*
G75*
G03X9334500Y8636000I-1333500J0D01*
G01*
D14*
X9536860Y13716000D02*
G75*
G03X9536860Y13716000I-1535860J0D01*
G01*
D13*
X9334500Y13716000D02*
G75*
G03X9334500Y13716000I-1333500J0D01*
G01*
X11239500Y16192500D02*
X11239500Y6096000D01*
X12573000Y6096000D02*
X4762500Y6096000D01*
X4762500Y16256000D02*
X12573000Y16256000D01*
X4762500Y16256000D02*
X4762500Y6096000D01*
X12573000Y6096000D02*
X12573000Y16256000D01*
D14*
X9588500Y69469000D02*
X7810500Y67691000D01*
X7239000Y68199000D02*
X9017000Y70040500D01*
X7239000Y63119000D02*
X9017000Y64960500D01*
X9588500Y64389000D02*
X7810500Y62611000D01*
X9906000Y66992500D02*
X11620500Y66992500D01*
X9398000Y67627500D02*
G75*
G02X9906000Y66992500I-63500J-571500D01*
G01*
X9334500Y62611000D02*
G75*
G02X9842500Y61976000I-63500J-571500D01*
G01*
X9842500Y61976000D02*
X11557000Y61976000D01*
X9398000Y64897000D02*
G75*
G03X9906000Y65532000I-63500J571500D01*
G01*
X9906000Y65532000D02*
X11620500Y65532000D01*
X9906000Y70675500D02*
X11620500Y70675500D01*
X9398000Y70040500D02*
G75*
G03X9906000Y70675500I-63500J571500D01*
G01*
X9906000Y66675000D02*
X9906000Y65913000D01*
X9906000Y65913000D02*
X6858000Y65913000D01*
X6858000Y65913000D02*
X6858000Y66675000D01*
X6858000Y66675000D02*
X9906000Y66675000D01*
X9906000Y63754000D02*
G75*
G03X9906000Y63754000I-1524000J0D01*
G01*
D13*
X9715500Y63754000D02*
G75*
G03X9715500Y63754000I-1333500J0D01*
G01*
D14*
X9917860Y68834000D02*
G75*
G03X9917860Y68834000I-1535860J0D01*
G01*
D13*
X9715500Y68834000D02*
G75*
G03X9715500Y68834000I-1333500J0D01*
G01*
X11620500Y71310500D02*
X11620500Y61214000D01*
X12954000Y61214000D02*
X5143500Y61214000D01*
X5143500Y71374000D02*
X12954000Y71374000D01*
X5143500Y71374000D02*
X5143500Y61214000D01*
X12954000Y61214000D02*
X12954000Y71374000D01*
D14*
X87249000Y8064500D02*
X89027000Y6286500D01*
X88519000Y5715000D02*
X86677500Y7493000D01*
X93599000Y5715000D02*
X91757500Y7493000D01*
X92329000Y8064500D02*
X94107000Y6286500D01*
X89725500Y8382000D02*
X89725500Y10096500D01*
X89090500Y7874000D02*
G75*
G02X89725500Y8382000I571500J-63500D01*
G01*
X94107000Y7810500D02*
G75*
G02X94742000Y8318500I571500J-63500D01*
G01*
X94742000Y8318500D02*
X94742000Y10033000D01*
X91821000Y7874000D02*
G75*
G03X91186000Y8382000I-571500J-63500D01*
G01*
X91186000Y8382000D02*
X91186000Y10096500D01*
X86042500Y8382000D02*
X86042500Y10096500D01*
X86677500Y7874000D02*
G75*
G03X86042500Y8382000I-571500J-63500D01*
G01*
X90043000Y8382000D02*
X90805000Y8382000D01*
X90805000Y8382000D02*
X90805000Y5334000D01*
X90805000Y5334000D02*
X90043000Y5334000D01*
X90043000Y5334000D02*
X90043000Y8382000D01*
X94488000Y6858000D02*
G75*
G03X94488000Y6858000I-1524000J0D01*
G01*
D13*
X94297500Y6858000D02*
G75*
G03X94297500Y6858000I-1333500J0D01*
G01*
D14*
X89419860Y6858000D02*
G75*
G03X89419860Y6858000I-1535860J0D01*
G01*
D13*
X89217500Y6858000D02*
G75*
G03X89217500Y6858000I-1333500J0D01*
G01*
X85407500Y10096500D02*
X95504000Y10096500D01*
X95504000Y11430000D02*
X95504000Y3619500D01*
X85344000Y3619500D02*
X85344000Y11430000D01*
X85344000Y3619500D02*
X95504000Y3619500D01*
X95504000Y11430000D02*
X85344000Y11430000D01*
D14*
X32131000Y8191500D02*
X33909000Y6413500D01*
X33401000Y5842000D02*
X31559500Y7620000D01*
X38481000Y5842000D02*
X36639500Y7620000D01*
X37211000Y8191500D02*
X38989000Y6413500D01*
X34607500Y8509000D02*
X34607500Y10223500D01*
X33972500Y8001000D02*
G75*
G02X34607500Y8509000I571500J-63500D01*
G01*
X38989000Y7937500D02*
G75*
G02X39624000Y8445500I571500J-63500D01*
G01*
X39624000Y8445500D02*
X39624000Y10160000D01*
X36703000Y8001000D02*
G75*
G03X36068000Y8509000I-571500J-63500D01*
G01*
X36068000Y8509000D02*
X36068000Y10223500D01*
X30924500Y8509000D02*
X30924500Y10223500D01*
X31559500Y8001000D02*
G75*
G03X30924500Y8509000I-571500J-63500D01*
G01*
X34925000Y8509000D02*
X35687000Y8509000D01*
X35687000Y8509000D02*
X35687000Y5461000D01*
X35687000Y5461000D02*
X34925000Y5461000D01*
X34925000Y5461000D02*
X34925000Y8509000D01*
X39370000Y6985000D02*
G75*
G03X39370000Y6985000I-1524000J0D01*
G01*
D13*
X39179500Y6985000D02*
G75*
G03X39179500Y6985000I-1333500J0D01*
G01*
D14*
X34301860Y6985000D02*
G75*
G03X34301860Y6985000I-1535860J0D01*
G01*
D13*
X34099500Y6985000D02*
G75*
G03X34099500Y6985000I-1333500J0D01*
G01*
X30289500Y10223500D02*
X40386000Y10223500D01*
X40386000Y11557000D02*
X40386000Y3746500D01*
X30226000Y3746500D02*
X30226000Y11557000D01*
X30226000Y3746500D02*
X40386000Y3746500D01*
X40386000Y11557000D02*
X30226000Y11557000D01*
D14*
X87249000Y63309500D02*
X89027000Y61531500D01*
X88519000Y60960000D02*
X86677500Y62738000D01*
X93599000Y60960000D02*
X91757500Y62738000D01*
X92329000Y63309500D02*
X94107000Y61531500D01*
X89725500Y63627000D02*
X89725500Y65341500D01*
X89090500Y63119000D02*
G75*
G02X89725500Y63627000I571500J-63500D01*
G01*
X94107000Y63055500D02*
G75*
G02X94742000Y63563500I571500J-63500D01*
G01*
X94742000Y63563500D02*
X94742000Y65278000D01*
X91821000Y63119000D02*
G75*
G03X91186000Y63627000I-571500J-63500D01*
G01*
X91186000Y63627000D02*
X91186000Y65341500D01*
X86042500Y63627000D02*
X86042500Y65341500D01*
X86677500Y63119000D02*
G75*
G03X86042500Y63627000I-571500J-63500D01*
G01*
X90043000Y63627000D02*
X90805000Y63627000D01*
X90805000Y63627000D02*
X90805000Y60579000D01*
X90805000Y60579000D02*
X90043000Y60579000D01*
X90043000Y60579000D02*
X90043000Y63627000D01*
X94488000Y62103000D02*
G75*
G03X94488000Y62103000I-1524000J0D01*
G01*
D13*
X94297500Y62103000D02*
G75*
G03X94297500Y62103000I-1333500J0D01*
G01*
D14*
X89419860Y62103000D02*
G75*
G03X89419860Y62103000I-1535860J0D01*
G01*
D13*
X89217500Y62103000D02*
G75*
G03X89217500Y62103000I-1333500J0D01*
G01*
X85407500Y65341500D02*
X95504000Y65341500D01*
X95504000Y66675000D02*
X95504000Y58864500D01*
X85344000Y58864500D02*
X85344000Y66675000D01*
X85344000Y58864500D02*
X95504000Y58864500D01*
X95504000Y66675000D02*
X85344000Y66675000D01*
D14*
X32131000Y63182500D02*
X33909000Y61404500D01*
X33401000Y60833000D02*
X31559500Y62611000D01*
X38481000Y60833000D02*
X36639500Y62611000D01*
X37211000Y63182500D02*
X38989000Y61404500D01*
X34607500Y63500000D02*
X34607500Y65214500D01*
X33972500Y62992000D02*
G75*
G02X34607500Y63500000I571500J-63500D01*
G01*
X38989000Y62928500D02*
G75*
G02X39624000Y63436500I571500J-63500D01*
G01*
X39624000Y63436500D02*
X39624000Y65151000D01*
X36703000Y62992000D02*
G75*
G03X36068000Y63500000I-571500J-63500D01*
G01*
X36068000Y63500000D02*
X36068000Y65214500D01*
X30924500Y63500000D02*
X30924500Y65214500D01*
X31559500Y62992000D02*
G75*
G03X30924500Y63500000I-571500J-63500D01*
G01*
X34925000Y63500000D02*
X35687000Y63500000D01*
X35687000Y63500000D02*
X35687000Y60452000D01*
X35687000Y60452000D02*
X34925000Y60452000D01*
X34925000Y60452000D02*
X34925000Y63500000D01*
X39370000Y61976000D02*
G75*
G03X39370000Y61976000I-1524000J0D01*
G01*
D13*
X39179500Y61976000D02*
G75*
G03X39179500Y61976000I-1333500J0D01*
G01*
D14*
X34301860Y61976000D02*
G75*
G03X34301860Y61976000I-1535860J0D01*
G01*
D13*
X34099500Y61976000D02*
G75*
G03X34099500Y61976000I-1333500J0D01*
G01*
X30289500Y65214500D02*
X40386000Y65214500D01*
X40386000Y66548000D02*
X40386000Y58737500D01*
X30226000Y58737500D02*
X30226000Y66548000D01*
X30226000Y58737500D02*
X40386000Y58737500D01*
X40386000Y66548000D02*
X30226000Y66548000D01*
X50647000Y4471000D02*
X52197000Y4471000D01*
X52197000Y1371000D02*
X50647000Y1371000D01*
X50647000Y1371000D02*
X50647000Y4471000D01*
X53467000Y1651000D02*
X53467000Y4191000D01*
X50927000Y27051000D02*
X50927000Y19431000D01*
X53467000Y27051000D02*
X53467000Y19431000D01*
X53747000Y29871000D02*
X53747000Y28321000D01*
X50927000Y19431000D02*
X53467000Y19431000D01*
X53467000Y27051000D02*
X50927000Y27051000D01*
X50647000Y28321000D02*
X50647000Y29871000D01*
X50647000Y29871000D02*
X53747000Y29871000D01*
X50927000Y9652000D02*
X50927000Y14732000D01*
X50927000Y14732000D02*
X53467000Y14732000D01*
X53467000Y14732000D02*
X53467000Y9652000D01*
X53467000Y9652000D02*
X50927000Y9652000D01*
X52197000Y9652000D02*
X52197000Y8382000D01*
X52197000Y14732000D02*
X52197000Y16002000D01*
X50927000Y64135000D02*
X50927000Y69215000D01*
X50927000Y69215000D02*
X53467000Y69215000D01*
X53467000Y69215000D02*
X53467000Y64135000D01*
X53467000Y64135000D02*
X50927000Y64135000D01*
X52197000Y64135000D02*
X52197000Y62865000D01*
X52197000Y69215000D02*
X52197000Y70485000D01*
X50927000Y81280000D02*
X50927000Y73660000D01*
X53467000Y81280000D02*
X53467000Y73660000D01*
X53747000Y84100000D02*
X53747000Y82550000D01*
X50927000Y73660000D02*
X53467000Y73660000D01*
X53467000Y81280000D02*
X50927000Y81280000D01*
X50647000Y82550000D02*
X50647000Y84100000D01*
X50647000Y84100000D02*
X53747000Y84100000D01*
X50647000Y59081000D02*
X52197000Y59081000D01*
X52197000Y55981000D02*
X50647000Y55981000D01*
X50647000Y55981000D02*
X50647000Y59081000D01*
X53467000Y56261000D02*
X53467000Y58801000D01*
X59208000Y49302000D02*
X59208000Y47752000D01*
X56108000Y47752000D02*
X56108000Y49302000D01*
X56108000Y49302000D02*
X59208000Y49302000D01*
X56388000Y46482000D02*
X58928000Y46482000D01*
X82169000Y49022000D02*
X74549000Y49022000D01*
X82169000Y46482000D02*
X74549000Y46482000D01*
X84989000Y46202000D02*
X83439000Y46202000D01*
X74549000Y49022000D02*
X74549000Y46482000D01*
X82169000Y46482000D02*
X82169000Y49022000D01*
X83439000Y49302000D02*
X84989000Y49302000D01*
X84989000Y49302000D02*
X84989000Y46202000D01*
X69342000Y46482000D02*
X64262000Y46482000D01*
X64262000Y46482000D02*
X64262000Y49022000D01*
X64262000Y49022000D02*
X69342000Y49022000D01*
X69342000Y49022000D02*
X69342000Y46482000D01*
X69342000Y47752000D02*
X70612000Y47752000D01*
X64262000Y47752000D02*
X62992000Y47752000D01*
X75282305Y12465010D02*
G75*
G03X75770000Y11762000I2187695J996990D01*
G01*
X79657695Y12465010D02*
G75*
G02X79170000Y11762000I-2187695J996990D01*
G01*
X75770000Y11762000D02*
X79170000Y11762000D01*
X75285121Y14455127D02*
G75*
G02X77470000Y15862000I2184879J-993127D01*
G01*
X79654879Y14455127D02*
G75*
G03X77470000Y15862000I-2184879J-993127D01*
G01*
X63500000Y21653500D02*
X60960000Y21653500D01*
X60960000Y21653500D02*
X60960000Y19113500D01*
X60960000Y19113500D02*
X63500000Y19113500D01*
X63500000Y19113500D02*
X91440000Y19113500D01*
X91440000Y19113500D02*
X91440000Y21653500D01*
X91440000Y21653500D02*
X63500000Y21653500D01*
X63500000Y19113500D02*
X63500000Y21653500D01*
X63500000Y36893500D02*
X60960000Y36893500D01*
X60960000Y36893500D02*
X60960000Y34353500D01*
X60960000Y34353500D02*
X63500000Y34353500D01*
X63500000Y34353500D02*
X91440000Y34353500D01*
X91440000Y34353500D02*
X91440000Y36893500D01*
X91440000Y36893500D02*
X63500000Y36893500D01*
X63500000Y34353500D02*
X63500000Y36893500D01*
X94234000Y27559000D02*
X94234000Y30099000D01*
X93954000Y24739000D02*
X93954000Y26289000D01*
X94234000Y27559000D02*
X96774000Y27559000D01*
X97054000Y26289000D02*
X97054000Y24739000D01*
X97054000Y24739000D02*
X93954000Y24739000D01*
X96774000Y27559000D02*
X96774000Y30099000D01*
X96774000Y30099000D02*
X94234000Y30099000D01*
X89154000Y12319000D02*
X86614000Y12319000D01*
X91974000Y12039000D02*
X90424000Y12039000D01*
X89154000Y12319000D02*
X89154000Y14859000D01*
X90424000Y15139000D02*
X91974000Y15139000D01*
X91974000Y15139000D02*
X91974000Y12039000D01*
X89154000Y14859000D02*
X86614000Y14859000D01*
X86614000Y14859000D02*
X86614000Y12319000D01*
X68961000Y11176000D02*
X68961000Y13716000D01*
X68681000Y8356000D02*
X68681000Y9906000D01*
X68961000Y11176000D02*
X71501000Y11176000D01*
X71781000Y9906000D02*
X71781000Y8356000D01*
X71781000Y8356000D02*
X68681000Y8356000D01*
X71501000Y11176000D02*
X71501000Y13716000D01*
X71501000Y13716000D02*
X68961000Y13716000D01*
X93005000Y34599000D02*
X98003000Y34599000D01*
X93013000Y34739000D02*
X97995000Y34739000D01*
X93029000Y34879000D02*
X95409000Y34879000D01*
X95599000Y34879000D02*
X97979000Y34879000D01*
X93053000Y35019000D02*
X95014000Y35019000D01*
X95994000Y35019000D02*
X97955000Y35019000D01*
X93086000Y35159000D02*
X94847000Y35159000D01*
X96161000Y35159000D02*
X97922000Y35159000D01*
X93127000Y35299000D02*
X94740000Y35299000D01*
X96268000Y35299000D02*
X97881000Y35299000D01*
X93177000Y35439000D02*
X94669000Y35439000D01*
X96339000Y35439000D02*
X97831000Y35439000D01*
X93238000Y35579000D02*
X94625000Y35579000D01*
X96383000Y35579000D02*
X97770000Y35579000D01*
X93308000Y35719000D02*
X94606000Y35719000D01*
X96402000Y35719000D02*
X97700000Y35719000D01*
X93390000Y35859000D02*
X94608000Y35859000D01*
X96400000Y35859000D02*
X97618000Y35859000D01*
X93485000Y35999000D02*
X94633000Y35999000D01*
X96375000Y35999000D02*
X97523000Y35999000D01*
X93596000Y36139000D02*
X94681000Y36139000D01*
X96327000Y36139000D02*
X97412000Y36139000D01*
X93724000Y36279000D02*
X94759000Y36279000D01*
X96249000Y36279000D02*
X97284000Y36279000D01*
X93873000Y36419000D02*
X94876000Y36419000D01*
X96132000Y36419000D02*
X97135000Y36419000D01*
X94052000Y36559000D02*
X95064000Y36559000D01*
X95944000Y36559000D02*
X96956000Y36559000D01*
X94271000Y36699000D02*
X96737000Y36699000D01*
X94560000Y36839000D02*
X96448000Y36839000D01*
X95032000Y36979000D02*
X95976000Y36979000D01*
X96404000Y35774000D02*
G75*
G03X96404000Y35774000I-900000J0D01*
G01*
X98041500Y34524000D02*
G75*
G03X98041500Y34524000I-2537500J0D01*
G01*
X82550000Y18542000D02*
X87630000Y18542000D01*
X87630000Y18542000D02*
X87630000Y16002000D01*
X87630000Y16002000D02*
X82550000Y16002000D01*
X82550000Y16002000D02*
X82550000Y18542000D01*
X82550000Y17272000D02*
X81280000Y17272000D01*
X87630000Y17272000D02*
X88900000Y17272000D01*
D15*
X98044000Y22606000D02*
X98044000Y22098000D01*
X98044000Y22098000D02*
X97663000Y21717000D01*
X97663000Y21717000D02*
X97663000Y13843000D01*
X98044000Y13462000D02*
X98044000Y12954000D01*
X98044000Y13462000D02*
X97663000Y13843000D01*
D13*
X94234000Y13716000D02*
X94234000Y14732000D01*
X94764356Y14177000D02*
G75*
G03X94764356Y14177000I-530356J0D01*
G01*
D15*
X93091000Y12954000D02*
X93091000Y22606000D01*
X93091000Y22606000D02*
X98044000Y22606000D01*
X98044000Y12954000D02*
X93094000Y12954000D01*
D13*
X80619000Y6549000D02*
X74321000Y6549000D01*
X80613000Y6409000D02*
X74327000Y6409000D01*
X80600000Y6269000D02*
X77916000Y6269000D01*
X77024000Y6269000D02*
X74340000Y6269000D01*
X80581000Y6129000D02*
X78126000Y6129000D01*
X76814000Y6129000D02*
X74359000Y6129000D01*
X80555000Y5989000D02*
X78259000Y5989000D01*
X76681000Y5989000D02*
X74385000Y5989000D01*
X80523000Y5849000D02*
X78350000Y5849000D01*
X76590000Y5849000D02*
X74417000Y5849000D01*
X80484000Y5709000D02*
X78412000Y5709000D01*
X76528000Y5709000D02*
X74456000Y5709000D01*
X80438000Y5569000D02*
X78451000Y5569000D01*
X76489000Y5569000D02*
X74502000Y5569000D01*
X80385000Y5429000D02*
X78468000Y5429000D01*
X76472000Y5429000D02*
X74555000Y5429000D01*
X80323000Y5289000D02*
X78466000Y5289000D01*
X76474000Y5289000D02*
X74617000Y5289000D01*
X80253000Y5149000D02*
X78444000Y5149000D01*
X76496000Y5149000D02*
X74687000Y5149000D01*
X80174000Y5009000D02*
X78401000Y5009000D01*
X76539000Y5009000D02*
X74766000Y5009000D01*
X80086000Y4869000D02*
X78333000Y4869000D01*
X76607000Y4869000D02*
X74854000Y4869000D01*
X79986000Y4729000D02*
X78234000Y4729000D01*
X76706000Y4729000D02*
X74954000Y4729000D01*
X79874000Y4589000D02*
X78089000Y4589000D01*
X76851000Y4589000D02*
X75066000Y4589000D01*
X79749000Y4449000D02*
X77850000Y4449000D01*
X77090000Y4449000D02*
X75191000Y4449000D01*
X79606000Y4309000D02*
X75334000Y4309000D01*
X79444000Y4169000D02*
X75496000Y4169000D01*
X79256000Y4029000D02*
X75684000Y4029000D01*
X79033000Y3889000D02*
X75907000Y3889000D01*
X78757000Y3749000D02*
X76183000Y3749000D01*
X78382000Y3609000D02*
X76558000Y3609000D01*
X78470000Y5374000D02*
G75*
G03X78470000Y5374000I-1000000J0D01*
G01*
X80657500Y6624000D02*
G75*
G03X80657500Y6624000I-3187500J0D01*
G01*
X83566000Y12065000D02*
X82550000Y11303000D01*
X83566000Y12065000D02*
X84582000Y11303000D01*
X84582000Y12065000D02*
X82550000Y12065000D01*
X84582000Y11303000D02*
X82550000Y11303000D01*
X72635000Y23376000D02*
X73905000Y23376000D01*
X72635000Y30726000D02*
X73905000Y30726000D01*
X84845000Y30726000D02*
X83575000Y30726000D01*
X84845000Y23376000D02*
X83575000Y23376000D01*
X72635000Y23376000D02*
X72635000Y30726000D01*
X84845000Y23376000D02*
X84845000Y30726000D01*
X73905000Y23376000D02*
X73905000Y22441000D01*
X74830940Y16637000D02*
X75831700Y16637000D01*
X74930000Y16637000D02*
G75*
G03X74930000Y16637000I-2499360J0D01*
G01*
X73660000Y39116000D02*
X81280000Y39116000D01*
X73660000Y41656000D02*
X81280000Y41656000D01*
X70840000Y41936000D02*
X72390000Y41936000D01*
X81280000Y39116000D02*
X81280000Y41656000D01*
X73660000Y41656000D02*
X73660000Y39116000D01*
X72390000Y38836000D02*
X70840000Y38836000D01*
X70840000Y38836000D02*
X70840000Y41936000D01*
X66040000Y41656000D02*
X68580000Y41656000D01*
X63220000Y41936000D02*
X64770000Y41936000D01*
X66040000Y41656000D02*
X66040000Y39116000D01*
X64770000Y38836000D02*
X63220000Y38836000D01*
X63220000Y38836000D02*
X63220000Y41936000D01*
X66040000Y39116000D02*
X68580000Y39116000D01*
X68580000Y39116000D02*
X68580000Y41656000D01*
X75282305Y67583010D02*
G75*
G03X75770000Y66880000I2187695J996990D01*
G01*
X79657695Y67583010D02*
G75*
G02X79170000Y66880000I-2187695J996990D01*
G01*
X75770000Y66880000D02*
X79170000Y66880000D01*
X75285121Y69573127D02*
G75*
G02X77470000Y70980000I2184879J-993127D01*
G01*
X79654879Y69573127D02*
G75*
G03X77470000Y70980000I-2184879J-993127D01*
G01*
X63500000Y76771500D02*
X60960000Y76771500D01*
X60960000Y76771500D02*
X60960000Y74231500D01*
X60960000Y74231500D02*
X63500000Y74231500D01*
X63500000Y74231500D02*
X91440000Y74231500D01*
X91440000Y74231500D02*
X91440000Y76771500D01*
X91440000Y76771500D02*
X63500000Y76771500D01*
X63500000Y74231500D02*
X63500000Y76771500D01*
X63500000Y92011500D02*
X60960000Y92011500D01*
X60960000Y92011500D02*
X60960000Y89471500D01*
X60960000Y89471500D02*
X63500000Y89471500D01*
X63500000Y89471500D02*
X91440000Y89471500D01*
X91440000Y89471500D02*
X91440000Y92011500D01*
X91440000Y92011500D02*
X63500000Y92011500D01*
X63500000Y89471500D02*
X63500000Y92011500D01*
X94234000Y82677000D02*
X94234000Y85217000D01*
X93954000Y79857000D02*
X93954000Y81407000D01*
X94234000Y82677000D02*
X96774000Y82677000D01*
X97054000Y81407000D02*
X97054000Y79857000D01*
X97054000Y79857000D02*
X93954000Y79857000D01*
X96774000Y82677000D02*
X96774000Y85217000D01*
X96774000Y85217000D02*
X94234000Y85217000D01*
X89154000Y67437000D02*
X86614000Y67437000D01*
X91974000Y67157000D02*
X90424000Y67157000D01*
X89154000Y67437000D02*
X89154000Y69977000D01*
X90424000Y70257000D02*
X91974000Y70257000D01*
X91974000Y70257000D02*
X91974000Y67157000D01*
X89154000Y69977000D02*
X86614000Y69977000D01*
X86614000Y69977000D02*
X86614000Y67437000D01*
X68961000Y66294000D02*
X68961000Y68834000D01*
X68681000Y63474000D02*
X68681000Y65024000D01*
X68961000Y66294000D02*
X71501000Y66294000D01*
X71781000Y65024000D02*
X71781000Y63474000D01*
X71781000Y63474000D02*
X68681000Y63474000D01*
X71501000Y66294000D02*
X71501000Y68834000D01*
X71501000Y68834000D02*
X68961000Y68834000D01*
X93005000Y89717000D02*
X98003000Y89717000D01*
X93013000Y89857000D02*
X97995000Y89857000D01*
X93029000Y89997000D02*
X95409000Y89997000D01*
X95599000Y89997000D02*
X97979000Y89997000D01*
X93053000Y90137000D02*
X95014000Y90137000D01*
X95994000Y90137000D02*
X97955000Y90137000D01*
X93086000Y90277000D02*
X94847000Y90277000D01*
X96161000Y90277000D02*
X97922000Y90277000D01*
X93127000Y90417000D02*
X94740000Y90417000D01*
X96268000Y90417000D02*
X97881000Y90417000D01*
X93177000Y90557000D02*
X94669000Y90557000D01*
X96339000Y90557000D02*
X97831000Y90557000D01*
X93238000Y90697000D02*
X94625000Y90697000D01*
X96383000Y90697000D02*
X97770000Y90697000D01*
X93308000Y90837000D02*
X94606000Y90837000D01*
X96402000Y90837000D02*
X97700000Y90837000D01*
X93390000Y90977000D02*
X94608000Y90977000D01*
X96400000Y90977000D02*
X97618000Y90977000D01*
X93485000Y91117000D02*
X94633000Y91117000D01*
X96375000Y91117000D02*
X97523000Y91117000D01*
X93596000Y91257000D02*
X94681000Y91257000D01*
X96327000Y91257000D02*
X97412000Y91257000D01*
X93724000Y91397000D02*
X94759000Y91397000D01*
X96249000Y91397000D02*
X97284000Y91397000D01*
X93873000Y91537000D02*
X94876000Y91537000D01*
X96132000Y91537000D02*
X97135000Y91537000D01*
X94052000Y91677000D02*
X95064000Y91677000D01*
X95944000Y91677000D02*
X96956000Y91677000D01*
X94271000Y91817000D02*
X96737000Y91817000D01*
X94560000Y91957000D02*
X96448000Y91957000D01*
X95032000Y92097000D02*
X95976000Y92097000D01*
X96404000Y90892000D02*
G75*
G03X96404000Y90892000I-900000J0D01*
G01*
X98041500Y89642000D02*
G75*
G03X98041500Y89642000I-2537500J0D01*
G01*
X82550000Y73660000D02*
X87630000Y73660000D01*
X87630000Y73660000D02*
X87630000Y71120000D01*
X87630000Y71120000D02*
X82550000Y71120000D01*
X82550000Y71120000D02*
X82550000Y73660000D01*
X82550000Y72390000D02*
X81280000Y72390000D01*
X87630000Y72390000D02*
X88900000Y72390000D01*
D15*
X98044000Y77724000D02*
X98044000Y77216000D01*
X98044000Y77216000D02*
X97663000Y76835000D01*
X97663000Y76835000D02*
X97663000Y68961000D01*
X98044000Y68580000D02*
X98044000Y68072000D01*
X98044000Y68580000D02*
X97663000Y68961000D01*
D13*
X94234000Y68834000D02*
X94234000Y69850000D01*
X94764356Y69295000D02*
G75*
G03X94764356Y69295000I-530356J0D01*
G01*
D15*
X93091000Y68072000D02*
X93091000Y77724000D01*
X93091000Y77724000D02*
X98044000Y77724000D01*
X98044000Y68072000D02*
X93094000Y68072000D01*
D13*
X80619000Y61667000D02*
X74321000Y61667000D01*
X80613000Y61527000D02*
X74327000Y61527000D01*
X80600000Y61387000D02*
X77916000Y61387000D01*
X77024000Y61387000D02*
X74340000Y61387000D01*
X80581000Y61247000D02*
X78126000Y61247000D01*
X76814000Y61247000D02*
X74359000Y61247000D01*
X80555000Y61107000D02*
X78259000Y61107000D01*
X76681000Y61107000D02*
X74385000Y61107000D01*
X80523000Y60967000D02*
X78350000Y60967000D01*
X76590000Y60967000D02*
X74417000Y60967000D01*
X80484000Y60827000D02*
X78412000Y60827000D01*
X76528000Y60827000D02*
X74456000Y60827000D01*
X80438000Y60687000D02*
X78451000Y60687000D01*
X76489000Y60687000D02*
X74502000Y60687000D01*
X80385000Y60547000D02*
X78468000Y60547000D01*
X76472000Y60547000D02*
X74555000Y60547000D01*
X80323000Y60407000D02*
X78466000Y60407000D01*
X76474000Y60407000D02*
X74617000Y60407000D01*
X80253000Y60267000D02*
X78444000Y60267000D01*
X76496000Y60267000D02*
X74687000Y60267000D01*
X80174000Y60127000D02*
X78401000Y60127000D01*
X76539000Y60127000D02*
X74766000Y60127000D01*
X80086000Y59987000D02*
X78333000Y59987000D01*
X76607000Y59987000D02*
X74854000Y59987000D01*
X79986000Y59847000D02*
X78234000Y59847000D01*
X76706000Y59847000D02*
X74954000Y59847000D01*
X79874000Y59707000D02*
X78089000Y59707000D01*
X76851000Y59707000D02*
X75066000Y59707000D01*
X79749000Y59567000D02*
X77850000Y59567000D01*
X77090000Y59567000D02*
X75191000Y59567000D01*
X79606000Y59427000D02*
X75334000Y59427000D01*
X79444000Y59287000D02*
X75496000Y59287000D01*
X79256000Y59147000D02*
X75684000Y59147000D01*
X79033000Y59007000D02*
X75907000Y59007000D01*
X78757000Y58867000D02*
X76183000Y58867000D01*
X78382000Y58727000D02*
X76558000Y58727000D01*
X78470000Y60492000D02*
G75*
G03X78470000Y60492000I-1000000J0D01*
G01*
X80657500Y61742000D02*
G75*
G03X80657500Y61742000I-3187500J0D01*
G01*
X83566000Y67183000D02*
X82550000Y66421000D01*
X83566000Y67183000D02*
X84582000Y66421000D01*
X84582000Y67183000D02*
X82550000Y67183000D01*
X84582000Y66421000D02*
X82550000Y66421000D01*
X72635000Y78494000D02*
X73905000Y78494000D01*
X72635000Y85844000D02*
X73905000Y85844000D01*
X84845000Y85844000D02*
X83575000Y85844000D01*
X84845000Y78494000D02*
X83575000Y78494000D01*
X72635000Y78494000D02*
X72635000Y85844000D01*
X84845000Y78494000D02*
X84845000Y85844000D01*
X73905000Y78494000D02*
X73905000Y77559000D01*
X74830940Y71755000D02*
X75831700Y71755000D01*
X74930000Y71755000D02*
G75*
G03X74930000Y71755000I-2499360J0D01*
G01*
X73660000Y94234000D02*
X81280000Y94234000D01*
X73660000Y96774000D02*
X81280000Y96774000D01*
X70840000Y97054000D02*
X72390000Y97054000D01*
X81280000Y94234000D02*
X81280000Y96774000D01*
X73660000Y96774000D02*
X73660000Y94234000D01*
X72390000Y93954000D02*
X70840000Y93954000D01*
X70840000Y93954000D02*
X70840000Y97054000D01*
X66040000Y96774000D02*
X68580000Y96774000D01*
X63220000Y97054000D02*
X64770000Y97054000D01*
X66040000Y96774000D02*
X66040000Y94234000D01*
X64770000Y93954000D02*
X63220000Y93954000D01*
X63220000Y93954000D02*
X63220000Y97054000D01*
X66040000Y94234000D02*
X68580000Y94234000D01*
X68580000Y94234000D02*
X68580000Y96774000D01*
X14605000Y46482000D02*
X9525000Y46482000D01*
X9525000Y46482000D02*
X9525000Y49022000D01*
X9525000Y49022000D02*
X14605000Y49022000D01*
X14605000Y49022000D02*
X14605000Y46482000D01*
X14605000Y47752000D02*
X15875000Y47752000D01*
X9525000Y47752000D02*
X8255000Y47752000D01*
X27559000Y49022000D02*
X19939000Y49022000D01*
X27559000Y46482000D02*
X19939000Y46482000D01*
X30379000Y46202000D02*
X28829000Y46202000D01*
X19939000Y49022000D02*
X19939000Y46482000D01*
X27559000Y46482000D02*
X27559000Y49022000D01*
X28829000Y49302000D02*
X30379000Y49302000D01*
X30379000Y49302000D02*
X30379000Y46202000D01*
X4344000Y49302000D02*
X4344000Y47752000D01*
X1244000Y47752000D02*
X1244000Y49302000D01*
X1244000Y49302000D02*
X4344000Y49302000D01*
X1524000Y46482000D02*
X4064000Y46482000D01*
X10922000Y96774000D02*
X13462000Y96774000D01*
X8102000Y97054000D02*
X9652000Y97054000D01*
X10922000Y96774000D02*
X10922000Y94234000D01*
X9652000Y93954000D02*
X8102000Y93954000D01*
X8102000Y93954000D02*
X8102000Y97054000D01*
X10922000Y94234000D02*
X13462000Y94234000D01*
X13462000Y94234000D02*
X13462000Y96774000D01*
X18542000Y94234000D02*
X26162000Y94234000D01*
X18542000Y96774000D02*
X26162000Y96774000D01*
X15722000Y97054000D02*
X17272000Y97054000D01*
X26162000Y94234000D02*
X26162000Y96774000D01*
X18542000Y96774000D02*
X18542000Y94234000D01*
X17272000Y93954000D02*
X15722000Y93954000D01*
X15722000Y93954000D02*
X15722000Y97054000D01*
X19712940Y71755000D02*
X20713700Y71755000D01*
X19812000Y71755000D02*
G75*
G03X19812000Y71755000I-2499360J0D01*
G01*
X17517000Y78494000D02*
X18787000Y78494000D01*
X17517000Y85844000D02*
X18787000Y85844000D01*
X29727000Y85844000D02*
X28457000Y85844000D01*
X29727000Y78494000D02*
X28457000Y78494000D01*
X17517000Y78494000D02*
X17517000Y85844000D01*
X29727000Y78494000D02*
X29727000Y85844000D01*
X18787000Y78494000D02*
X18787000Y77559000D01*
X28448000Y67183000D02*
X27432000Y66421000D01*
X28448000Y67183000D02*
X29464000Y66421000D01*
X29464000Y67183000D02*
X27432000Y67183000D01*
X29464000Y66421000D02*
X27432000Y66421000D01*
X25501000Y61667000D02*
X19203000Y61667000D01*
X25495000Y61527000D02*
X19209000Y61527000D01*
X25482000Y61387000D02*
X22798000Y61387000D01*
X21906000Y61387000D02*
X19222000Y61387000D01*
X25463000Y61247000D02*
X23008000Y61247000D01*
X21696000Y61247000D02*
X19241000Y61247000D01*
X25437000Y61107000D02*
X23141000Y61107000D01*
X21563000Y61107000D02*
X19267000Y61107000D01*
X25405000Y60967000D02*
X23232000Y60967000D01*
X21472000Y60967000D02*
X19299000Y60967000D01*
X25366000Y60827000D02*
X23294000Y60827000D01*
X21410000Y60827000D02*
X19338000Y60827000D01*
X25320000Y60687000D02*
X23333000Y60687000D01*
X21371000Y60687000D02*
X19384000Y60687000D01*
X25267000Y60547000D02*
X23350000Y60547000D01*
X21354000Y60547000D02*
X19437000Y60547000D01*
X25205000Y60407000D02*
X23348000Y60407000D01*
X21356000Y60407000D02*
X19499000Y60407000D01*
X25135000Y60267000D02*
X23326000Y60267000D01*
X21378000Y60267000D02*
X19569000Y60267000D01*
X25056000Y60127000D02*
X23283000Y60127000D01*
X21421000Y60127000D02*
X19648000Y60127000D01*
X24968000Y59987000D02*
X23215000Y59987000D01*
X21489000Y59987000D02*
X19736000Y59987000D01*
X24868000Y59847000D02*
X23116000Y59847000D01*
X21588000Y59847000D02*
X19836000Y59847000D01*
X24756000Y59707000D02*
X22971000Y59707000D01*
X21733000Y59707000D02*
X19948000Y59707000D01*
X24631000Y59567000D02*
X22732000Y59567000D01*
X21972000Y59567000D02*
X20073000Y59567000D01*
X24488000Y59427000D02*
X20216000Y59427000D01*
X24326000Y59287000D02*
X20378000Y59287000D01*
X24138000Y59147000D02*
X20566000Y59147000D01*
X23915000Y59007000D02*
X20789000Y59007000D01*
X23639000Y58867000D02*
X21065000Y58867000D01*
X23264000Y58727000D02*
X21440000Y58727000D01*
X23352000Y60492000D02*
G75*
G03X23352000Y60492000I-1000000J0D01*
G01*
X25539500Y61742000D02*
G75*
G03X25539500Y61742000I-3187500J0D01*
G01*
D15*
X42926000Y77724000D02*
X42926000Y77216000D01*
X42926000Y77216000D02*
X42545000Y76835000D01*
X42545000Y76835000D02*
X42545000Y68961000D01*
X42926000Y68580000D02*
X42926000Y68072000D01*
X42926000Y68580000D02*
X42545000Y68961000D01*
D13*
X39116000Y68834000D02*
X39116000Y69850000D01*
X39646356Y69295000D02*
G75*
G03X39646356Y69295000I-530356J0D01*
G01*
D15*
X37973000Y68072000D02*
X37973000Y77724000D01*
X37973000Y77724000D02*
X42926000Y77724000D01*
X42926000Y68072000D02*
X37976000Y68072000D01*
D13*
X27432000Y73660000D02*
X32512000Y73660000D01*
X32512000Y73660000D02*
X32512000Y71120000D01*
X32512000Y71120000D02*
X27432000Y71120000D01*
X27432000Y71120000D02*
X27432000Y73660000D01*
X27432000Y72390000D02*
X26162000Y72390000D01*
X32512000Y72390000D02*
X33782000Y72390000D01*
X37887000Y89717000D02*
X42885000Y89717000D01*
X37895000Y89857000D02*
X42877000Y89857000D01*
X37911000Y89997000D02*
X40291000Y89997000D01*
X40481000Y89997000D02*
X42861000Y89997000D01*
X37935000Y90137000D02*
X39896000Y90137000D01*
X40876000Y90137000D02*
X42837000Y90137000D01*
X37968000Y90277000D02*
X39729000Y90277000D01*
X41043000Y90277000D02*
X42804000Y90277000D01*
X38009000Y90417000D02*
X39622000Y90417000D01*
X41150000Y90417000D02*
X42763000Y90417000D01*
X38059000Y90557000D02*
X39551000Y90557000D01*
X41221000Y90557000D02*
X42713000Y90557000D01*
X38120000Y90697000D02*
X39507000Y90697000D01*
X41265000Y90697000D02*
X42652000Y90697000D01*
X38190000Y90837000D02*
X39488000Y90837000D01*
X41284000Y90837000D02*
X42582000Y90837000D01*
X38272000Y90977000D02*
X39490000Y90977000D01*
X41282000Y90977000D02*
X42500000Y90977000D01*
X38367000Y91117000D02*
X39515000Y91117000D01*
X41257000Y91117000D02*
X42405000Y91117000D01*
X38478000Y91257000D02*
X39563000Y91257000D01*
X41209000Y91257000D02*
X42294000Y91257000D01*
X38606000Y91397000D02*
X39641000Y91397000D01*
X41131000Y91397000D02*
X42166000Y91397000D01*
X38755000Y91537000D02*
X39758000Y91537000D01*
X41014000Y91537000D02*
X42017000Y91537000D01*
X38934000Y91677000D02*
X39946000Y91677000D01*
X40826000Y91677000D02*
X41838000Y91677000D01*
X39153000Y91817000D02*
X41619000Y91817000D01*
X39442000Y91957000D02*
X41330000Y91957000D01*
X39914000Y92097000D02*
X40858000Y92097000D01*
X41286000Y90892000D02*
G75*
G03X41286000Y90892000I-900000J0D01*
G01*
X42923500Y89642000D02*
G75*
G03X42923500Y89642000I-2537500J0D01*
G01*
X13843000Y66294000D02*
X13843000Y68834000D01*
X13563000Y63474000D02*
X13563000Y65024000D01*
X13843000Y66294000D02*
X16383000Y66294000D01*
X16663000Y65024000D02*
X16663000Y63474000D01*
X16663000Y63474000D02*
X13563000Y63474000D01*
X16383000Y66294000D02*
X16383000Y68834000D01*
X16383000Y68834000D02*
X13843000Y68834000D01*
X34036000Y67437000D02*
X31496000Y67437000D01*
X36856000Y67157000D02*
X35306000Y67157000D01*
X34036000Y67437000D02*
X34036000Y69977000D01*
X35306000Y70257000D02*
X36856000Y70257000D01*
X36856000Y70257000D02*
X36856000Y67157000D01*
X34036000Y69977000D02*
X31496000Y69977000D01*
X31496000Y69977000D02*
X31496000Y67437000D01*
X39116000Y82677000D02*
X39116000Y85217000D01*
X38836000Y79857000D02*
X38836000Y81407000D01*
X39116000Y82677000D02*
X41656000Y82677000D01*
X41936000Y81407000D02*
X41936000Y79857000D01*
X41936000Y79857000D02*
X38836000Y79857000D01*
X41656000Y82677000D02*
X41656000Y85217000D01*
X41656000Y85217000D02*
X39116000Y85217000D01*
X8382000Y92011500D02*
X5842000Y92011500D01*
X5842000Y92011500D02*
X5842000Y89471500D01*
X5842000Y89471500D02*
X8382000Y89471500D01*
X8382000Y89471500D02*
X36322000Y89471500D01*
X36322000Y89471500D02*
X36322000Y92011500D01*
X36322000Y92011500D02*
X8382000Y92011500D01*
X8382000Y89471500D02*
X8382000Y92011500D01*
X8382000Y76771500D02*
X5842000Y76771500D01*
X5842000Y76771500D02*
X5842000Y74231500D01*
X5842000Y74231500D02*
X8382000Y74231500D01*
X8382000Y74231500D02*
X36322000Y74231500D01*
X36322000Y74231500D02*
X36322000Y76771500D01*
X36322000Y76771500D02*
X8382000Y76771500D01*
X8382000Y74231500D02*
X8382000Y76771500D01*
X20164305Y67583010D02*
G75*
G03X20652000Y66880000I2187695J996990D01*
G01*
X24539695Y67583010D02*
G75*
G02X24052000Y66880000I-2187695J996990D01*
G01*
X20652000Y66880000D02*
X24052000Y66880000D01*
X20167121Y69573127D02*
G75*
G02X22352000Y70980000I2184879J-993127D01*
G01*
X24536879Y69573127D02*
G75*
G03X22352000Y70980000I-2184879J-993127D01*
G01*
X20164305Y12465010D02*
G75*
G03X20652000Y11762000I2187695J996990D01*
G01*
X24539695Y12465010D02*
G75*
G02X24052000Y11762000I-2187695J996990D01*
G01*
X20652000Y11762000D02*
X24052000Y11762000D01*
X20167121Y14455127D02*
G75*
G02X22352000Y15862000I2184879J-993127D01*
G01*
X24536879Y14455127D02*
G75*
G03X22352000Y15862000I-2184879J-993127D01*
G01*
X8382000Y21653500D02*
X5842000Y21653500D01*
X5842000Y21653500D02*
X5842000Y19113500D01*
X5842000Y19113500D02*
X8382000Y19113500D01*
X8382000Y19113500D02*
X36322000Y19113500D01*
X36322000Y19113500D02*
X36322000Y21653500D01*
X36322000Y21653500D02*
X8382000Y21653500D01*
X8382000Y19113500D02*
X8382000Y21653500D01*
X8382000Y36893500D02*
X5842000Y36893500D01*
X5842000Y36893500D02*
X5842000Y34353500D01*
X5842000Y34353500D02*
X8382000Y34353500D01*
X8382000Y34353500D02*
X36322000Y34353500D01*
X36322000Y34353500D02*
X36322000Y36893500D01*
X36322000Y36893500D02*
X8382000Y36893500D01*
X8382000Y34353500D02*
X8382000Y36893500D01*
X39116000Y27559000D02*
X39116000Y30099000D01*
X38836000Y24739000D02*
X38836000Y26289000D01*
X39116000Y27559000D02*
X41656000Y27559000D01*
X41936000Y26289000D02*
X41936000Y24739000D01*
X41936000Y24739000D02*
X38836000Y24739000D01*
X41656000Y27559000D02*
X41656000Y30099000D01*
X41656000Y30099000D02*
X39116000Y30099000D01*
X34036000Y12319000D02*
X31496000Y12319000D01*
X36856000Y12039000D02*
X35306000Y12039000D01*
X34036000Y12319000D02*
X34036000Y14859000D01*
X35306000Y15139000D02*
X36856000Y15139000D01*
X36856000Y15139000D02*
X36856000Y12039000D01*
X34036000Y14859000D02*
X31496000Y14859000D01*
X31496000Y14859000D02*
X31496000Y12319000D01*
X13843000Y11176000D02*
X13843000Y13716000D01*
X13563000Y8356000D02*
X13563000Y9906000D01*
X13843000Y11176000D02*
X16383000Y11176000D01*
X16663000Y9906000D02*
X16663000Y8356000D01*
X16663000Y8356000D02*
X13563000Y8356000D01*
X16383000Y11176000D02*
X16383000Y13716000D01*
X16383000Y13716000D02*
X13843000Y13716000D01*
X37887000Y34599000D02*
X42885000Y34599000D01*
X37895000Y34739000D02*
X42877000Y34739000D01*
X37911000Y34879000D02*
X40291000Y34879000D01*
X40481000Y34879000D02*
X42861000Y34879000D01*
X37935000Y35019000D02*
X39896000Y35019000D01*
X40876000Y35019000D02*
X42837000Y35019000D01*
X37968000Y35159000D02*
X39729000Y35159000D01*
X41043000Y35159000D02*
X42804000Y35159000D01*
X38009000Y35299000D02*
X39622000Y35299000D01*
X41150000Y35299000D02*
X42763000Y35299000D01*
X38059000Y35439000D02*
X39551000Y35439000D01*
X41221000Y35439000D02*
X42713000Y35439000D01*
X38120000Y35579000D02*
X39507000Y35579000D01*
X41265000Y35579000D02*
X42652000Y35579000D01*
X38190000Y35719000D02*
X39488000Y35719000D01*
X41284000Y35719000D02*
X42582000Y35719000D01*
X38272000Y35859000D02*
X39490000Y35859000D01*
X41282000Y35859000D02*
X42500000Y35859000D01*
X38367000Y35999000D02*
X39515000Y35999000D01*
X41257000Y35999000D02*
X42405000Y35999000D01*
X38478000Y36139000D02*
X39563000Y36139000D01*
X41209000Y36139000D02*
X42294000Y36139000D01*
X38606000Y36279000D02*
X39641000Y36279000D01*
X41131000Y36279000D02*
X42166000Y36279000D01*
X38755000Y36419000D02*
X39758000Y36419000D01*
X41014000Y36419000D02*
X42017000Y36419000D01*
X38934000Y36559000D02*
X39946000Y36559000D01*
X40826000Y36559000D02*
X41838000Y36559000D01*
X39153000Y36699000D02*
X41619000Y36699000D01*
X39442000Y36839000D02*
X41330000Y36839000D01*
X39914000Y36979000D02*
X40858000Y36979000D01*
X41286000Y35774000D02*
G75*
G03X41286000Y35774000I-900000J0D01*
G01*
X42923500Y34524000D02*
G75*
G03X42923500Y34524000I-2537500J0D01*
G01*
X27432000Y18542000D02*
X32512000Y18542000D01*
X32512000Y18542000D02*
X32512000Y16002000D01*
X32512000Y16002000D02*
X27432000Y16002000D01*
X27432000Y16002000D02*
X27432000Y18542000D01*
X27432000Y17272000D02*
X26162000Y17272000D01*
X32512000Y17272000D02*
X33782000Y17272000D01*
D15*
X42926000Y22606000D02*
X42926000Y22098000D01*
X42926000Y22098000D02*
X42545000Y21717000D01*
X42545000Y21717000D02*
X42545000Y13843000D01*
X42926000Y13462000D02*
X42926000Y12954000D01*
X42926000Y13462000D02*
X42545000Y13843000D01*
D13*
X39116000Y13716000D02*
X39116000Y14732000D01*
X39646356Y14177000D02*
G75*
G03X39646356Y14177000I-530356J0D01*
G01*
D15*
X37973000Y12954000D02*
X37973000Y22606000D01*
X37973000Y22606000D02*
X42926000Y22606000D01*
X42926000Y12954000D02*
X37976000Y12954000D01*
D13*
X25501000Y6549000D02*
X19203000Y6549000D01*
X25495000Y6409000D02*
X19209000Y6409000D01*
X25482000Y6269000D02*
X22798000Y6269000D01*
X21906000Y6269000D02*
X19222000Y6269000D01*
X25463000Y6129000D02*
X23008000Y6129000D01*
X21696000Y6129000D02*
X19241000Y6129000D01*
X25437000Y5989000D02*
X23141000Y5989000D01*
X21563000Y5989000D02*
X19267000Y5989000D01*
X25405000Y5849000D02*
X23232000Y5849000D01*
X21472000Y5849000D02*
X19299000Y5849000D01*
X25366000Y5709000D02*
X23294000Y5709000D01*
X21410000Y5709000D02*
X19338000Y5709000D01*
X25320000Y5569000D02*
X23333000Y5569000D01*
X21371000Y5569000D02*
X19384000Y5569000D01*
X25267000Y5429000D02*
X23350000Y5429000D01*
X21354000Y5429000D02*
X19437000Y5429000D01*
X25205000Y5289000D02*
X23348000Y5289000D01*
X21356000Y5289000D02*
X19499000Y5289000D01*
X25135000Y5149000D02*
X23326000Y5149000D01*
X21378000Y5149000D02*
X19569000Y5149000D01*
X25056000Y5009000D02*
X23283000Y5009000D01*
X21421000Y5009000D02*
X19648000Y5009000D01*
X24968000Y4869000D02*
X23215000Y4869000D01*
X21489000Y4869000D02*
X19736000Y4869000D01*
X24868000Y4729000D02*
X23116000Y4729000D01*
X21588000Y4729000D02*
X19836000Y4729000D01*
X24756000Y4589000D02*
X22971000Y4589000D01*
X21733000Y4589000D02*
X19948000Y4589000D01*
X24631000Y4449000D02*
X22732000Y4449000D01*
X21972000Y4449000D02*
X20073000Y4449000D01*
X24488000Y4309000D02*
X20216000Y4309000D01*
X24326000Y4169000D02*
X20378000Y4169000D01*
X24138000Y4029000D02*
X20566000Y4029000D01*
X23915000Y3889000D02*
X20789000Y3889000D01*
X23639000Y3749000D02*
X21065000Y3749000D01*
X23264000Y3609000D02*
X21440000Y3609000D01*
X23352000Y5374000D02*
G75*
G03X23352000Y5374000I-1000000J0D01*
G01*
X25539500Y6624000D02*
G75*
G03X25539500Y6624000I-3187500J0D01*
G01*
X28448000Y12065000D02*
X27432000Y11303000D01*
X28448000Y12065000D02*
X29464000Y11303000D01*
X29464000Y12065000D02*
X27432000Y12065000D01*
X29464000Y11303000D02*
X27432000Y11303000D01*
X17517000Y23376000D02*
X18787000Y23376000D01*
X17517000Y30726000D02*
X18787000Y30726000D01*
X29727000Y30726000D02*
X28457000Y30726000D01*
X29727000Y23376000D02*
X28457000Y23376000D01*
X17517000Y23376000D02*
X17517000Y30726000D01*
X29727000Y23376000D02*
X29727000Y30726000D01*
X18787000Y23376000D02*
X18787000Y22441000D01*
X19712940Y16637000D02*
X20713700Y16637000D01*
X19812000Y16637000D02*
G75*
G03X19812000Y16637000I-2499360J0D01*
G01*
X18542000Y39116000D02*
X26162000Y39116000D01*
X18542000Y41656000D02*
X26162000Y41656000D01*
X15722000Y41936000D02*
X17272000Y41936000D01*
X26162000Y39116000D02*
X26162000Y41656000D01*
X18542000Y41656000D02*
X18542000Y39116000D01*
X17272000Y38836000D02*
X15722000Y38836000D01*
X15722000Y38836000D02*
X15722000Y41936000D01*
X10922000Y41656000D02*
X13462000Y41656000D01*
X8102000Y41936000D02*
X9652000Y41936000D01*
X10922000Y41656000D02*
X10922000Y39116000D01*
X9652000Y38836000D02*
X8102000Y38836000D01*
X8102000Y38836000D02*
X8102000Y41936000D01*
X10922000Y39116000D02*
X13462000Y39116000D01*
X13462000Y39116000D02*
X13462000Y41656000D01*
X82081667Y10556905D02*
X82081667Y11033096D01*
X82367381Y10461667D02*
X81367381Y10795000D01*
X82367381Y11128334D01*
X82081667Y65674905D02*
X82081667Y66151096D01*
X82367381Y65579667D02*
X81367381Y65913000D01*
X82367381Y66246334D01*
X26963667Y65674905D02*
X26963667Y66151096D01*
X27249381Y65579667D02*
X26249381Y65913000D01*
X27249381Y66246334D01*
X26963667Y10556905D02*
X26963667Y11033096D01*
X27249381Y10461667D02*
X26249381Y10795000D01*
X27249381Y11128334D01*
M02*
